<svg width="107" height="44" viewBox="0 0 107 44" fill="none" xmlns="http://www.w3.org/2000/svg">
<path d="M107 1.25589L82.5539 23.2364L73.9568 16.5435L82.2494 31.1036L107 1.25589Z" fill="#F6F6F6"/>
<path d="M1.2642 29.9678V15.4223H11.0653V17.9578H4.33949V21.4237H10.5611V23.9593H4.33949V27.4323H11.0938V29.9678H1.2642ZM16.3938 15.4223L19.3271 20.3797H19.4407L22.3881 15.4223H25.8612L21.4222 22.695L25.9606 29.9678H22.4237L19.4407 25.0033H19.3271L16.3441 29.9678H12.8214L17.3739 22.695L12.9066 15.4223H16.3938ZM30.3143 29.9678H27.0188L32.0401 15.4223H36.0032L41.0174 29.9678H37.7219L34.0785 18.7462H33.9648L30.3143 29.9678ZM30.1083 24.2504H37.8924V26.651H30.1083V24.2504ZM42.7681 15.4223H46.5607L50.5664 25.195H50.7369L54.7425 15.4223H58.5352V29.9678H55.5522V20.5004H55.4315L51.6673 29.8968H49.636L45.8718 20.4649H45.7511V29.9678H42.7681V15.4223ZM68.9595 19.6056C68.9027 19.0326 68.6589 18.5876 68.228 18.2703C67.7971 17.9531 67.2124 17.7945 66.4737 17.7945C65.9718 17.7945 65.5481 17.8655 65.2024 18.0075C64.8568 18.1449 64.5916 18.3366 64.407 18.5828C64.227 18.829 64.1371 19.1084 64.1371 19.4209C64.1276 19.6813 64.1821 19.9086 64.3004 20.1027C64.4235 20.2968 64.5916 20.4649 64.8047 20.607C65.0178 20.7443 65.264 20.865 65.5433 20.9692C65.8227 21.0686 66.121 21.1539 66.4382 21.2249L67.745 21.5374C68.3795 21.6794 68.9619 21.8688 69.4922 22.1056C70.0225 22.3423 70.4818 22.6335 70.87 22.9791C71.2583 23.3248 71.5589 23.732 71.772 24.2007C71.9898 24.6695 72.1011 25.2069 72.1058 25.8129C72.1011 26.7031 71.8738 27.4749 71.424 28.1283C70.9789 28.777 70.335 29.2812 69.4922 29.6411C68.6541 29.9962 67.6432 30.1737 66.4595 30.1737C65.2853 30.1737 64.2625 29.9938 63.3913 29.634C62.5249 29.2741 61.8478 28.7414 61.3601 28.036C60.8771 27.3257 60.6238 26.4474 60.6001 25.401H63.576C63.6091 25.8887 63.7488 26.2959 63.995 26.6226C64.246 26.9446 64.5798 27.1884 64.9964 27.3541C65.4179 27.5151 65.8937 27.5956 66.424 27.5956C66.9448 27.5956 67.397 27.5199 67.7805 27.3683C68.1688 27.2168 68.4695 27.0061 68.6825 26.7362C68.8956 26.4664 69.0021 26.1562 69.0021 25.8058C69.0021 25.4791 68.9051 25.2045 68.7109 24.982C68.5215 24.7594 68.2422 24.57 67.8729 24.4138C67.5083 24.2575 67.0608 24.1155 66.5305 23.9877L64.9467 23.5899C63.7204 23.2916 62.7521 22.8253 62.0419 22.1908C61.3317 21.5563 60.9789 20.7017 60.9837 19.6269C60.9789 18.7462 61.2133 17.9768 61.6868 17.3186C62.165 16.6605 62.8208 16.1468 63.6541 15.7774C64.4875 15.4081 65.4344 15.2235 66.495 15.2235C67.5746 15.2235 68.5168 15.4081 69.3217 15.7774C70.1314 16.1468 70.7611 16.6605 71.2109 17.3186C71.6607 17.9768 71.8928 18.7391 71.907 19.6056H68.9595Z" fill="#F6F6F6"/>
<path d="M1.05682 40.9854V32.2581H4.00568C4.69034 32.2581 5.25 32.3817 5.68466 32.6288C6.12216 32.8731 6.44602 33.2041 6.65625 33.6217C6.86648 34.0393 6.97159 34.5052 6.97159 35.0194C6.97159 35.5336 6.86648 36.001 6.65625 36.4214C6.44886 36.8419 6.12784 37.1771 5.69318 37.4271C5.25852 37.6743 4.7017 37.7979 4.02273 37.7979H1.90909V36.8604H3.98864C4.45739 36.8604 4.83381 36.7794 5.1179 36.6175C5.40199 36.4555 5.60795 36.2368 5.7358 35.9612C5.86648 35.6828 5.93182 35.3689 5.93182 35.0194C5.93182 34.67 5.86648 34.3575 5.7358 34.0819C5.60795 33.8064 5.40057 33.5905 5.11364 33.4342C4.8267 33.2751 4.44602 33.1956 3.97159 33.1956H2.11364V40.9854H1.05682ZM11.314 40.9854V32.2581H14.2629C14.9447 32.2581 15.5043 32.3746 15.9418 32.6075C16.3793 32.8376 16.7032 33.1544 16.9134 33.5578C17.1237 33.9612 17.2288 34.42 17.2288 34.9342C17.2288 35.4484 17.1237 35.9044 16.9134 36.3021C16.7032 36.6998 16.3808 37.0123 15.9461 37.2396C15.5114 37.464 14.9561 37.5763 14.2799 37.5763H11.8936V36.6217H14.2458C14.7117 36.6217 15.0867 36.5535 15.3708 36.4172C15.6578 36.2808 15.8651 36.0876 15.993 35.8376C16.1237 35.5848 16.189 35.2836 16.189 34.9342C16.189 34.5848 16.1237 34.2794 15.993 34.018C15.8623 33.7567 15.6535 33.555 15.3666 33.4129C15.0796 33.268 14.7004 33.1956 14.2288 33.1956H12.3708V40.9854H11.314ZM15.422 37.0649L17.5697 40.9854H16.3424L14.2288 37.0649H15.422ZM22.6866 32.2581V40.9854H21.6298V32.2581H22.6866ZM27.4456 32.2581H28.7069L31.6728 39.5024H31.7751L34.741 32.2581H36.0024V40.9854H35.0138V34.3547H34.9285L32.2013 40.9854H31.2467L28.5194 34.3547H28.4342V40.9854H27.4456V32.2581ZM40.7614 40.9854V32.2581H46.0284V33.1956H41.8182V36.1444H45.7557V37.0819H41.8182V40.0479H46.0966V40.9854H40.7614ZM53.2664 40.9854H50.5732V32.2581H53.3857C54.2323 32.2581 54.9567 32.4328 55.559 32.7822C56.1613 33.1288 56.6229 33.6274 56.944 34.278C57.265 34.9257 57.4255 35.7013 57.4255 36.6047C57.4255 37.5138 57.2636 38.2964 56.9397 38.9527C56.6158 39.6061 56.1442 40.1089 55.5249 40.4612C54.9056 40.8106 54.1528 40.9854 53.2664 40.9854ZM51.63 40.0479H53.1982C53.9198 40.0479 54.5178 39.9086 54.9923 39.6302C55.4667 39.3518 55.8204 38.9555 56.0533 38.4413C56.2863 37.9271 56.4028 37.3149 56.4028 36.6047C56.4028 35.9001 56.2877 35.2936 56.0576 34.7851C55.8275 34.2737 55.4837 33.8817 55.0264 33.6089C54.569 33.3334 53.9994 33.1956 53.3175 33.1956H51.63V40.0479Z" fill="#F6F6F6"/>
<path fill-rule="evenodd" clip-rule="evenodd" d="M98.1636 11.5956V34.7124H69.9561V30.983H63.9561V34.7124V40.7124H69.9561H98.1636H104.164V34.7124V10.6768V4.67676H104.118L98.1636 11.5956ZM100.706 4.67676H98.1636H69.9561H63.9561V10.6768V14.1472H69.9561V10.6768H94.3001L100.706 4.67676Z" fill="#F6F6F6"/>
</svg>
