<svg width="12" height="12" viewBox="0 0 12 12" fill="none" xmlns="http://www.w3.org/2000/svg">
<path d="M4.55306 2.724C4.85206 1.849 6.06106 1.8225 6.41556 2.6445L6.44556 2.7245L6.84906 3.9045C6.94154 4.17512 7.09097 4.42276 7.28728 4.63071C7.48359 4.83867 7.72222 5.00211 7.98706 5.11L8.09556 5.1505L9.27556 5.5535C10.1506 5.8525 10.1771 7.0615 9.35556 7.416L9.27556 7.446L8.09556 7.8495C7.82485 7.94191 7.57712 8.09131 7.36907 8.28763C7.16103 8.48394 6.99751 8.7226 6.88956 8.9875L6.84906 9.0955L6.44606 10.276C6.14706 11.151 4.93806 11.1775 4.58406 10.356L4.55306 10.276L4.15006 9.096C4.05765 8.82529 3.90825 8.57755 3.71193 8.36951C3.51562 8.16146 3.27696 7.99795 3.01206 7.89L2.90406 7.8495L1.72406 7.4465C0.848564 7.1475 0.822064 5.9385 1.64406 5.5845L1.72406 5.5535L2.90406 5.1505C3.17468 5.05803 3.42232 4.9086 3.63028 4.71229C3.83823 4.51597 4.00167 4.27735 4.10956 4.0125L4.15006 3.9045L4.55306 2.724ZM9.49956 1C9.5931 1 9.68477 1.02624 9.76414 1.07574C9.84351 1.12523 9.90741 1.196 9.94856 1.28L9.97256 1.3385L10.1476 1.8515L10.6611 2.0265C10.7548 2.05835 10.837 2.11731 10.8972 2.19591C10.9574 2.27451 10.9929 2.36921 10.9992 2.46801C11.0055 2.56681 10.9824 2.66527 10.9327 2.75089C10.883 2.83652 10.809 2.90547 10.7201 2.949L10.6611 2.973L10.1481 3.148L9.97306 3.6615C9.94116 3.75521 9.88216 3.83735 9.80353 3.8975C9.7249 3.95764 9.63018 3.9931 9.53138 3.99936C9.43259 4.00563 9.33415 3.98242 9.24856 3.93269C9.16296 3.88296 9.09405 3.80893 9.05056 3.72L9.02656 3.6615L8.85156 3.1485L8.33806 2.9735C8.24432 2.94165 8.16215 2.88269 8.10195 2.80409C8.04175 2.72549 8.00624 2.63079 7.99993 2.53199C7.99361 2.43319 8.01676 2.33473 8.06645 2.24911C8.11615 2.16348 8.19014 2.09453 8.27906 2.051L8.33806 2.027L8.85106 1.852L9.02606 1.3385C9.05978 1.23971 9.12357 1.15395 9.20848 1.09325C9.2934 1.03254 9.39518 0.999937 9.49956 1Z" fill="url(#paint0_linear_1494_2184)"/>
<defs>
<linearGradient id="paint0_linear_1494_2184" x1="11.0002" y1="5.97641" x2="1.04688" y2="5.97641" gradientUnits="userSpaceOnUse">
<stop stop-color="#90F1A2"/>
<stop offset="1" stop-color="#00CEEF"/>
</linearGradient>
</defs>
</svg>
