<svg width="17" height="17" viewBox="0 0 17 17" fill="none" xmlns="http://www.w3.org/2000/svg">
<path d="M7.79167 1.41797C4.66225 1.41797 2.125 3.92901 2.125 7.02726C2.125 8.0848 2.42038 9.07434 2.93463 9.91797M10.2708 7.79297V9.20964M12.3958 7.79297V9.20964M10.2708 2.1263V3.54297M12.3958 2.1263V3.54297M9.20833 4.60547H7.79167M9.20833 6.73047H7.79167M14.875 4.60547H13.4583M14.875 6.73047H13.4583M9.91667 13.4596L9.82458 13.9179C9.72542 14.4187 9.67512 14.6688 9.5625 14.8671C9.38895 15.1728 9.10796 15.403 8.77412 15.5131C8.55808 15.5846 8.30167 15.5846 7.79167 15.5846C7.28167 15.5846 7.02525 15.5846 6.80921 15.5138C6.47526 15.4036 6.19424 15.173 6.02083 14.8671C5.90821 14.6688 5.85792 14.4187 5.75875 13.9179L5.66667 13.4596M12.0417 3.54297H10.625C9.95704 3.54297 9.62342 3.54297 9.41587 3.75051C9.20833 3.95805 9.20833 4.29168 9.20833 4.95964V6.3763C9.20833 7.04426 9.20833 7.37789 9.41587 7.58543C9.62342 7.79297 9.95704 7.79297 10.625 7.79297H12.0417C12.7096 7.79297 13.0433 7.79297 13.2508 7.58543C13.4583 7.37789 13.4583 7.04426 13.4583 6.3763V4.95964C13.4583 4.29168 13.4583 3.95805 13.2508 3.75051C13.0433 3.54297 12.7096 3.54297 12.0417 3.54297ZM4.52129 12.1124C4.45612 11.9169 4.42354 11.8184 4.42708 11.7391C4.43109 11.6571 4.45878 11.578 4.5068 11.5113C4.55482 11.4447 4.62111 11.3934 4.69767 11.3637C4.77133 11.3346 4.87475 11.3346 5.08017 11.3346H10.5032C10.7093 11.3346 10.812 11.3346 10.8857 11.363C10.9623 11.3928 11.0287 11.4442 11.0767 11.5109C11.1248 11.5777 11.1524 11.6569 11.1562 11.7391C11.1598 11.8184 11.1272 11.9162 11.062 12.1124C10.9416 12.4743 10.8814 12.6557 10.7886 12.8023C10.5945 13.1087 10.2903 13.329 9.93862 13.4178C9.77004 13.4596 9.58021 13.4596 9.19983 13.4596H6.3835C6.00312 13.4596 5.81258 13.4596 5.64471 13.4171C5.29314 13.3285 4.98892 13.1085 4.79471 12.8023C4.70192 12.6557 4.64171 12.4743 4.52129 12.1124Z" stroke="#0B67B0" stroke-width="1.0625" stroke-linecap="round" stroke-linejoin="round"/>
</svg>
