<svg width="27" height="27" viewBox="0 0 27 27" fill="none" xmlns="http://www.w3.org/2000/svg">
<g id="tabler:send">
<path id="Vector" d="M11.2497 15.75L23.6247 3.375M11.2497 15.75L15.1872 23.625C15.2365 23.7327 15.3158 23.824 15.4155 23.888C15.5152 23.952 15.6312 23.986 15.7497 23.986C15.8681 23.986 15.9841 23.952 16.0838 23.888C16.1835 23.824 16.2628 23.7327 16.3122 23.625L23.6247 3.375M11.2497 15.75L3.37465 11.8125C3.26694 11.7631 3.17567 11.6839 3.11168 11.5842C3.04769 11.4845 3.01367 11.3685 3.01367 11.25C3.01367 11.1315 3.04769 11.0155 3.11168 10.9158C3.17567 10.8161 3.26694 10.7369 3.37465 10.6875L23.6247 3.375" stroke="#0B67B0" stroke-width="2.25" stroke-linecap="round" stroke-linejoin="round"/>
</g>
</svg>
