<?xml version="1.0" encoding="utf-8"?>
<!-- Generator: Adobe Illustrator 27.5.0, SVG Export Plug-In . SVG Version: 6.00 Build 0)  -->
<svg version="1.1" id="Layer_1" xmlns="http://www.w3.org/2000/svg" xmlns:xlink="http://www.w3.org/1999/xlink" x="0px" y="0px"
	 viewBox="0 0 253.433 287.518" style="enable-background:new 0 0 253.433 287.518;" xml:space="preserve">
<g>
	<path style="fill:#834D2A;" d="M158.407,174.858c0,0-3.273,10.727,0,27.273s29.091,17.819,29.091,17.819s-10.9,35.083-60.718,34.34
		c-49.817-0.743-61.037-34.34-61.037-34.34s25.819-1.273,29.092-17.819c3.273-16.546,0-27.273,0-27.273
		S158.407,174.242,158.407,174.858z"/>
	<path style="opacity:0.47;fill:#834D2A;" d="M95.388,199.012c3.353,3.375,7.139,6.324,11.247,8.652
		c3.64,2.063,7.591,3.634,11.718,4.377c3.885,0.699,7.889,0.569,11.772-0.081c7.76-1.3,15.038-4.74,21.541-9.086
		c2.1-1.404,4.131-2.911,6.094-4.503c-2.13-14.389,0.647-23.512,0.647-23.512c0-0.616-63.571,0-63.571,0S97.7,184.25,95.388,199.012
		z"/>
	<path style="fill:none;stroke:#C92D1C;stroke-width:0.3727;stroke-miterlimit:10;" d="M81.921,213.395"/>
	<g>
		<path style="fill:#3E65BF;" d="M127.049,257.59c48.608-0.311,55.12-38.686,55.12-38.686c0.649-2.598-3.365-3.424-7.321-4.546
			c-3.956-1.122-3.719-0.886-3.956,0.059c-0.225,0.9-3.837,29.043-39.696,30.665c-37.966,1.079-47.914-23.509-48.658-30.665
			c-0.101-0.968,0-1.181-3.956-0.059c-3.956,1.122-7.97,1.948-7.321,4.546C71.263,218.904,78.441,257.901,127.049,257.59z"/>
		<path style="fill:#5A63EB;" d="M249.631,283.205c-10.575-56.509-67.462-64.301-67.462-64.301s-6.512,38.375-55.12,38.686
			c-48.608,0.311-55.786-38.686-55.786-38.686s-56.887,7.792-67.462,64.301h106.244c0,0,34.333-0.33,33.341,0H249.631z"/>
		<path style="opacity:0.41;fill:#FFFFFF;" d="M73.962,242.661c3.634,0.001,7.268,0.002,10.902,0.003
			c-2.8-2.717-5.05-5.556-6.849-8.288c-14.466,0.015-28.932,0.003-43.397-0.073c-3.397,2.429-6.765,5.23-9.977,8.447
			C41.08,242.671,57.519,242.657,73.962,242.661z"/>
		<path style="opacity:0.41;fill:#FFFFFF;" d="M226.09,242.701c0.883,0,1.766-0.001,2.65-0.001c-3.231-3.23-6.62-6.041-10.037-8.475
			c-14.353,0.002-28.705,0.009-43.058,0.014c-1.808,2.782-4.095,5.679-6.965,8.448C187.816,242.691,206.953,242.699,226.09,242.701z
			"/>
		<path style="opacity:0.41;fill:#FFFFFF;" d="M80.609,268.227c54.929,0.014,109.858,0.03,164.787,0.039
			c-1.814-4.65-3.974-8.873-6.388-12.703c-30.186,0.004-60.372,0.008-90.558,0.013c-1.339,0-2.678,0-4.016,0.001
			c-5.097,1.231-10.852,1.973-17.384,2.014c-6.858,0.044-12.873-0.708-18.176-2.009c-14.554,0.002-29.107,0.005-43.661,0.007
			c-16.931,0.002-33.864,0.056-50.795-0.014c-2.429,3.855-4.599,8.11-6.419,12.796C32.201,268.247,56.403,268.221,80.609,268.227z"
			/>
	</g>
	<g>
		<path style="fill:#834D2A;" d="M206.848,108.88c-1.928-6.804-9.196-9.938-16.112-7.027c-3.956,1.665-6.883,5.537-8.557,9.294
			c-0.976,2.189-1.552,4.547-1.873,6.878c-1.497,4.22-2.24,8.81-2.036,13.137c0.145,3.064,0.464,8.673,3.658,10.194
			c3.115,1.484,8.122-1.404,10.803-3.118c3.405-2.176,6.229-5.144,8.536-8.405C205.611,123.695,208.886,116.073,206.848,108.88z"/>
		<path style="opacity:0.47;fill:#834D2A;" d="M185.238,141.641c0.458-1.567,0.895-3.139,1.307-4.717
			c1.643-6.292,2.934-12.692,3.525-19.125c0.476-5.174,0.514-10.421-0.287-15.486c-3.474,1.847-6.068,5.387-7.605,8.835
			c-0.976,2.189-1.552,4.547-1.873,6.878c-1.497,4.22-2.24,8.81-2.036,13.137c0.145,3.064,0.464,8.673,3.658,10.194
			C182.892,141.815,184.037,141.854,185.238,141.641z"/>
		<path style="opacity:0.47;fill:#834D2A;" d="M203.572,109.245c-0.737-1.272-2.104-1.979-3.535-2.104
			c-3.294-0.288-6.719,2.259-8.842,4.77c-4.724,5.589-5.698,13.413-6.061,20.318c-0.021,0.404,0.557,0.098,0.602-0.185
			c0.18-1.119,0.363-2.255,0.561-3.398c0.119,0.806,0.3,1.594,0.48,2.3c0.355,1.386,1.185,2.592,2.691,2.607
			c3.636,0.035,6.22-4.548,8.015-7.185c0.169-0.248-0.199-0.3-0.339-0.13c-1.669,2.018-3.404,4.644-5.862,5.685
			c-1.979,0.838-2.831-0.59-3.343-2.237c-0.421-1.357-1.097-2.921-0.778-4.398c0.044-0.205-0.031-0.307-0.148-0.338
			c0.744-3.394,1.772-6.738,3.479-9.738c1.482-2.606,3.708-5.021,6.515-6.055c1.911-0.704,3.981-0.471,5.128,1.272
			c1.071,1.628,0.702,3.856,0.939,5.763c0.028,0.227,0.386-0.009,0.397-0.168C203.62,113.762,204.778,111.325,203.572,109.245z"/>
	</g>
	<g>
		<path style="fill:#834D2A;" d="M52.458,130.309c2.307,3.261,5.131,6.229,8.536,8.404c2.682,1.714,7.688,4.602,10.804,3.118
			c3.195-1.522,3.513-7.131,3.658-10.194c0.205-4.326-0.539-8.916-2.035-13.137c-0.321-2.332-0.897-4.689-1.873-6.878
			c-1.674-3.757-4.601-7.629-8.557-9.294c-6.917-2.911-14.184,0.223-16.112,7.027C44.84,116.548,48.115,124.169,52.458,130.309z"/>
		<path style="opacity:0.47;fill:#834D2A;" d="M68.488,142.116c-0.458-1.567-0.895-3.139-1.307-4.717
			c-1.643-6.293-2.934-12.693-3.525-19.125c-0.476-5.174-0.514-10.421,0.287-15.486c3.474,1.847,6.068,5.387,7.605,8.835
			c0.976,2.189,1.552,4.547,1.873,6.878c1.497,4.22,2.24,8.81,2.035,13.137c-0.145,3.064-0.463,8.673-3.658,10.194
			C70.834,142.29,69.689,142.329,68.488,142.116z"/>
		<path style="opacity:0.47;fill:#834D2A;" d="M50.153,109.72c0.737-1.272,2.104-1.979,3.536-2.104
			c3.294-0.288,6.719,2.259,8.841,4.77c4.724,5.589,5.698,13.413,6.061,20.318c0.021,0.404-0.557,0.098-0.602-0.185
			c-0.18-1.119-0.363-2.256-0.561-3.398c-0.119,0.806-0.3,1.594-0.48,2.3c-0.355,1.386-1.185,2.592-2.691,2.607
			c-3.636,0.035-6.22-4.548-8.015-7.185c-0.169-0.248,0.199-0.3,0.339-0.13c1.669,2.018,3.404,4.644,5.862,5.685
			c1.979,0.838,2.831-0.59,3.342-2.237c0.421-1.357,1.097-2.921,0.778-4.398c-0.044-0.205,0.031-0.307,0.148-0.338
			c-0.744-3.394-1.772-6.738-3.479-9.738c-1.482-2.606-3.708-5.021-6.515-6.055c-1.911-0.705-3.981-0.471-5.128,1.272
			c-1.071,1.628-0.702,3.857-0.939,5.763c-0.028,0.227-0.386-0.009-0.397-0.168C50.106,114.237,48.948,111.8,50.153,109.72z"/>
	</g>
	<path style="fill:#834D2A;" d="M65.674,85.503c0,0,1.097,19.533,3.731,43.455c2.634,23.922,10.535,37.749,24.142,48.283
		c13.607,10.535,21.069,15.582,32.701,15.582s21.728-4.828,37.31-18.874c15.582-14.046,17.997-30.506,19.972-48.064
		c1.975-17.558,2.414-47.406-1.536-68.475c-3.951-21.069-28.444-35.355-63.391-31.265C86.067,29.952,63.698,49.948,65.674,85.503z"
		/>
	<g style="opacity:0.36;">
		<g style="opacity:0.47;">
			<path style="fill:#AE5733;" d="M83.156,128.555c-0.012-0.037-0.035-0.067-0.07-0.088c-0.034-0.024-0.071-0.037-0.112-0.039
				c-0.043-0.01-0.087-0.009-0.13,0.003c-0.031,0.01-0.061,0.02-0.092,0.03c-0.064,0.028-0.12,0.068-0.168,0.118
				c-0.02,0.025-0.04,0.051-0.059,0.076c-0.032,0.05-0.05,0.104-0.056,0.162v0.107c-0.005,0.041,0.002,0.078,0.022,0.112
				c0.012,0.037,0.035,0.067,0.07,0.088c0.034,0.024,0.071,0.037,0.112,0.039c0.043,0.01,0.087,0.009,0.131-0.003
				c0.031-0.01,0.061-0.02,0.092-0.03c0.064-0.028,0.12-0.068,0.168-0.118c0.02-0.026,0.039-0.051,0.059-0.076
				c0.032-0.05,0.05-0.104,0.056-0.162v-0.107C83.184,128.627,83.176,128.589,83.156,128.555z"/>
			<path style="fill:#AE5733;" d="M86.683,127.687c-0.342,0-0.663,0.608-0.209,0.608C86.817,128.296,87.137,127.687,86.683,127.687z
				"/>
			<path style="fill:#AE5733;" d="M90.797,127.435c-0.006-0.05-0.016-0.099-0.031-0.148c-0.006-0.018-0.014-0.035-0.023-0.052
				c-0.008-0.05-0.026-0.099-0.072-0.128c-0.067-0.041-0.135-0.04-0.211-0.031c-0.085-0.005-0.172,0.003-0.244,0.043
				c-0.035,0.019-0.067,0.04-0.1,0.059c-0.141,0.065-0.271,0.154-0.374,0.266c-0.19,0.206-0.297,0.471-0.318,0.749
				c-0.005,0.072,0.021,0.139,0.071,0.189c0.055,0.054,0.118,0.071,0.196,0.078c0.112,0.01,0.223,0.004,0.334-0.013
				c0.138-0.021,0.262-0.079,0.381-0.149c0.058-0.035,0.11-0.081,0.158-0.128c0.047-0.045,0.089-0.1,0.123-0.156
				c0.067-0.11,0.107-0.233,0.119-0.362C90.814,127.581,90.805,127.506,90.797,127.435z"/>
			<path style="fill:#AE5733;" d="M96.515,128.895c-0.009-0.044-0.031-0.08-0.065-0.106c-0.028-0.034-0.064-0.056-0.108-0.066
				c-0.011-0.004-0.022-0.009-0.034-0.013c-0.026-0.004-0.051-0.007-0.077-0.011c-0.044-0.002-0.086,0.006-0.126,0.022
				c-0.031,0.007-0.059,0.019-0.085,0.037c-0.044,0.021-0.082,0.05-0.115,0.086l-0.042,0.039c-0.022,0.028-0.044,0.056-0.066,0.084
				c-0.029,0.041-0.046,0.086-0.052,0.135c-0.01,0.029-0.012,0.058-0.006,0.088c-0.002,0.03,0.005,0.057,0.021,0.081
				c0.013,0.041,0.039,0.074,0.078,0.098l0.078,0.036l0.091,0.013c0.052,0.002,0.102-0.007,0.15-0.026
				c0.037-0.008,0.07-0.023,0.101-0.045c0.035-0.016,0.067-0.038,0.093-0.065c0.044-0.033,0.081-0.074,0.109-0.122
				c0.014-0.03,0.029-0.06,0.043-0.09c0.006-0.03,0.012-0.06,0.019-0.09C96.52,128.953,96.518,128.924,96.515,128.895z"/>
			<path style="fill:#AE5733;" d="M98.295,130.948c-0.416,0-0.806,0.74-0.254,0.74C98.458,131.688,98.848,130.948,98.295,130.948z"
				/>
			<path style="fill:#AE5733;" d="M91.332,132.8c-0.006-0.051-0.017-0.101-0.036-0.149c-0.056-0.147-0.138-0.277-0.275-0.363
				c-0.166-0.104-0.362-0.134-0.553-0.1c-0.055,0.01-0.11,0.028-0.164,0.05c-0.181,0.053-0.332,0.172-0.446,0.328
				c-0.112,0.153-0.173,0.343-0.197,0.529c-0.023,0.186,0.013,0.37,0.107,0.531c0.111,0.189,0.31,0.277,0.519,0.3
				c0.111,0.012,0.231-0.002,0.338-0.033c0.234-0.066,0.422-0.204,0.559-0.404c0.09-0.131,0.139-0.294,0.156-0.451
				C91.349,132.96,91.341,132.879,91.332,132.8z"/>
			<path style="fill:#AE5733;" d="M71.718,127.766c-0.001-0.004-0.004-0.006-0.006-0.01c-0.023-0.057-0.03-0.118-0.044-0.178
				c0.021-0.052,0.029-0.109,0.014-0.166c-0.02-0.075-0.072-0.117-0.135-0.141c-0.005-0.013-0.01-0.025-0.016-0.038
				c-0.027-0.064-0.055-0.128-0.084-0.191c-0.032-0.044-0.074-0.073-0.126-0.087c-0.057-0.015-0.115-0.016-0.174-0.003
				c-0.13,0.027-0.255,0.113-0.323,0.227c-0.097,0.16-0.186,0.325-0.254,0.501c-0.039,0.101-0.016,0.228,0.078,0.291
				c0.027,0.018,0.054,0.034,0.083,0.048c0.042,0.02,0.085,0.044,0.131,0.053c0.11,0.023,0.214,0.01,0.318-0.028
				c0.001,0.001,0.001,0.001,0.002,0.002c0.047,0.049,0.076,0.077,0.147,0.087c0.136,0.02,0.28-0.062,0.351-0.177
				C71.713,127.905,71.74,127.827,71.718,127.766z"/>
			<path style="fill:#AE5733;" d="M72.533,124.213c-0.388,0-0.751,0.69-0.236,0.69C72.684,124.903,73.048,124.213,72.533,124.213z"
				/>
			<path style="fill:#AE5733;" d="M75.718,132.642c-0.005-0.034-0.009-0.068-0.014-0.101c-0.009-0.045-0.031-0.081-0.066-0.108
				c-0.028-0.035-0.065-0.057-0.11-0.067c-0.031-0.005-0.062-0.009-0.093-0.014c-0.053-0.002-0.104,0.007-0.153,0.027
				c-0.037,0.008-0.071,0.023-0.103,0.045c-0.053,0.025-0.099,0.06-0.139,0.104c-0.022,0.029-0.045,0.057-0.067,0.086
				c-0.036,0.056-0.057,0.117-0.063,0.183l-0.014,0.11c-0.005,0.062,0.01,0.119,0.045,0.171c0.021,0.021,0.042,0.042,0.063,0.062
				c0.054,0.035,0.114,0.052,0.178,0.052c0.055,0.002,0.108-0.007,0.158-0.028c0.058-0.015,0.11-0.04,0.159-0.077
				c0.051-0.033,0.093-0.074,0.126-0.123c0.036-0.04,0.063-0.087,0.08-0.139C75.728,132.767,75.732,132.705,75.718,132.642z"/>
			<path style="fill:#AE5733;" d="M101.853,129.932c0-0.007-0.006-0.077-0.007-0.084c0-0.001,0-0.002-0.001-0.003
				c0-0.001-0.001-0.002-0.001-0.003c0-0.001-0.001-0.001-0.001-0.002c0-0.001-0.032-0.071-0.033-0.072c0,0,0-0.001,0-0.001
				c-0.001-0.002-0.003-0.004-0.005-0.007c-0.018-0.021-0.039-0.041-0.06-0.059c-0.033-0.023-0.068-0.035-0.107-0.037
				c-0.016-0.004-0.032,0.002-0.048,0.001c-0.006-0.001-0.011-0.002-0.017-0.002c-0.012,0.001-0.024,0.002-0.036,0.004
				c-0.008,0.001-0.016-0.002-0.024,0.001c-0.003,0.001-0.006,0.002-0.008,0.003c-0.011,0.001-0.021,0.002-0.032,0.003
				c-0.004,0.001-0.008,0.003-0.012,0.004c-0.007,0.002-0.014,0.004-0.021,0.004c0.004,0,0.008-0.001,0.011-0.001
				c-0.004,0.001-0.008,0.003-0.012,0.004c-0.027,0.004-0.055,0.004-0.081,0.014c-0.055,0.014-0.106,0.039-0.152,0.073
				c-0.029,0.025-0.058,0.05-0.088,0.075c-0.039,0.038-0.068,0.081-0.088,0.13c-0.018,0.028-0.028,0.058-0.031,0.091
				c-0.013,0.043-0.014,0.087-0.002,0.132c0.012,0.026,0.024,0.052,0.035,0.077c0.035,0.048,0.082,0.08,0.139,0.096
				c0.033,0.005,0.067,0.01,0.1,0.015c0.003,0,0.007,0.001,0.01,0.001c0.006,0,0.011,0.001,0.017,0c0.003,0,0.005,0,0.008-0.001
				c0.034-0.003,0.069-0.006,0.103-0.01c0.001,0,0.003,0,0.004,0c0.002,0,0.005-0.001,0.007-0.002c0.001,0,0.002,0,0.003-0.001
				c0.001,0,0.001,0,0.002,0c0.018-0.006,0.035-0.011,0.053-0.017c0.017-0.006,0.035-0.011,0.052-0.017
				c0.002-0.001,0.1-0.056,0.102-0.057c0.001-0.001,0.088-0.076,0.089-0.076c0.001-0.001,0.066-0.085,0.067-0.086
				c0.001-0.001,0.044-0.091,0.044-0.092c0-0.001,0.001-0.002,0.001-0.003c0-0.001,0-0.001,0-0.002
				c0.001-0.004,0.018-0.086,0.019-0.09c0-0.001,0-0.002,0-0.003C101.853,129.933,101.853,129.932,101.853,129.932z"/>
			<g>
				<path style="fill:#AE5733;" d="M104.443,124.716c-0.015-0.055-0.045-0.099-0.092-0.131c-0.032-0.03-0.063-0.061-0.096-0.089
					c-0.007-0.006-0.015-0.012-0.023-0.018c-0.003-0.002-0.006-0.004-0.009-0.006c-0.019-0.01-0.082-0.034-0.093-0.04
					c-0.056-0.015-0.079-0.012-0.133-0.007c-0.077,0.008-0.056,0.002-0.156,0.039c-0.001,0-0.002,0.001-0.004,0.001
					c-0.072,0.033-0.138,0.077-0.193,0.135c-0.025,0.026-0.048,0.055-0.067,0.086c-0.029,0.048-0.062,0.122-0.062,0.181
					c0,0.001,0.007,0.085,0.007,0.086c0.006,0.027,0.019,0.054,0.035,0.077c0.001,0.001,0.002,0.002,0.003,0.003
					c0,0,0,0.001,0.001,0.001l0-0.001c0.001,0.002,0.004,0.003,0.005,0.005c0.015,0.023,0.033,0.044,0.058,0.059
					c0.026,0.014,0.053,0.027,0.081,0.037c0.002,0,0.004,0.001,0.006,0.002c0.005,0.001,0.011,0.003,0.016,0.005
					c0.001,0,0.001,0.001,0.002,0.001c0.015,0.007,0.029,0.014,0.044,0.022c0.006,0.003,0.012,0.006,0.018,0.009
					c0.036,0.025,0.076,0.039,0.119,0.041c0.046,0.01,0.093,0.009,0.139-0.003c0.053-0.01,0.102-0.03,0.146-0.059
					c0.05-0.024,0.094-0.057,0.132-0.099c0.021-0.027,0.042-0.054,0.063-0.081c0.034-0.053,0.054-0.111,0.059-0.174
					C104.447,124.771,104.445,124.744,104.443,124.716z"/>
				<path style="fill:#AE5733;" d="M104.129,124.433c0.005,0.001,0.007,0.001,0.012,0.002
					C104.126,124.431,104.124,124.431,104.129,124.433z"/>
			</g>
			<path style="fill:#AE5733;" d="M100.443,124.285c-0.036-0.045-0.095-0.079-0.154-0.073c-0.041,0.004-0.082,0.008-0.122,0.012
				c-0.023,0.002-0.046,0.004-0.069,0.006c-0.008-0.055-0.03-0.112-0.077-0.141c-0.066-0.041-0.148-0.051-0.223-0.033
				c-0.089,0.021-0.18,0.066-0.24,0.136c-0.056,0.065-0.103,0.128-0.132,0.21c-0.009,0.025-0.014,0.058-0.016,0.084
				c-0.001,0.011,0.002,0.055,0.008,0.079c0.003,0.01,0.018,0.039,0.015,0.034c-0.006-0.012,0.01,0.026,0.016,0.034
				c0.014,0.02,0.04,0.044,0.053,0.054c0.003,0.002,0.006,0.004,0.009,0.006c0.015,0.009,0.047,0.023,0.063,0.03
				c0.002,0.001,0.004,0.002,0.006,0.002c0.03,0.009,0.063,0.013,0.094,0.014c0.029,0.001,0.058-0.005,0.087-0.009
				c0.145,0.001,0.29-0.027,0.433-0.048c0.037-0.007,0.071-0.021,0.102-0.041c0.035-0.017,0.066-0.04,0.092-0.069
				c0.038-0.043,0.068-0.09,0.079-0.147C100.475,124.379,100.474,124.324,100.443,124.285z"/>
			<path style="fill:#AE5733;" d="M98.709,136.361c-0.364,0-0.704,0.646-0.222,0.646C98.851,137.007,99.191,136.361,98.709,136.361z
				"/>
			<path style="fill:#AE5733;" d="M94.408,137.888c-0.335,0-0.649,0.596-0.204,0.596C94.538,138.484,94.852,137.888,94.408,137.888z
				"/>
			<path style="fill:#AE5733;" d="M87.007,136.051c-0.349,0-0.676,0.621-0.213,0.621C87.144,136.672,87.471,136.051,87.007,136.051z
				"/>
			<path style="fill:#AE5733;" d="M89.269,132.804c-0.019-0.018-0.038-0.037-0.056-0.055c-0.048-0.031-0.101-0.046-0.159-0.046
				c-0.031,0.003-0.062,0.006-0.093,0.009c-0.069,0.015-0.132,0.043-0.189,0.084c-0.042,0.035-0.091,0.071-0.126,0.116
				c-0.023,0.029-0.047,0.058-0.068,0.088c-0.003,0.005-0.006,0.009-0.009,0.014c-0.021,0.034-0.036,0.072-0.053,0.108
				c-0.019,0.042-0.026,0.094-0.034,0.137c-0.004,0.022-0.005,0.045-0.004,0.067c-0.005,0.041,0.002,0.078,0.022,0.112
				c0.012,0.037,0.035,0.066,0.07,0.088c0.034,0.024,0.071,0.037,0.112,0.039c0.043,0.01,0.087,0.009,0.13-0.003
				c0.031-0.01,0.061-0.02,0.092-0.03c0.064-0.028,0.12-0.068,0.168-0.118c0.02-0.025,0.039-0.051,0.059-0.076
				c0.027-0.041,0.042-0.087,0.05-0.134c0.012-0.013,0.028-0.023,0.038-0.038c0.033-0.036,0.056-0.077,0.071-0.124
				c0.017-0.041,0.021-0.083,0.014-0.125C89.306,132.876,89.294,132.838,89.269,132.804z"/>
			<path style="fill:#AE5733;" d="M81.766,133.638c-0.013-0.05-0.041-0.09-0.083-0.119c-0.023-0.011-0.046-0.021-0.068-0.032
				c-0.025-0.007-0.05-0.01-0.075-0.011c-0.001-0.028-0.002-0.055-0.016-0.08c-0.011-0.035-0.033-0.062-0.065-0.082
				c-0.022-0.01-0.044-0.02-0.066-0.031c-0.039-0.012-0.079-0.014-0.118-0.007c-0.029,0-0.058,0.006-0.084,0.018
				c-0.046,0.012-0.088,0.032-0.127,0.061l-0.073,0.063c-0.041,0.042-0.071,0.091-0.091,0.146c-0.012,0.056-0.028,0.116-0.028,0.174
				c0,0.038,0.003,0.076,0.009,0.113c0.002,0.012,0.005,0.023,0.009,0.034c0.011,0.027,0.023,0.054,0.037,0.08
				c0.003,0.005,0.006,0.009,0.009,0.014c0.013,0.018,0.05,0.056,0.078,0.071c0.002,0.001,0.004,0.002,0.007,0.003
				c0.024,0.012,0.049,0.024,0.075,0.035c0.005,0.002,0.011,0.004,0.016,0.005c0.018,0.005,0.038,0.006,0.056,0.009
				c0.019,0.003,0.039,0.007,0.058,0.007c0.007,0,0.014,0,0.021,0c0.036-0.002,0.073-0.006,0.109-0.011
				c0.018-0.002,0.036-0.007,0.054-0.012c0.048-0.009,0.092-0.027,0.133-0.054c0.046-0.022,0.085-0.052,0.12-0.09
				c0.034-0.033,0.059-0.07,0.076-0.113c0.021-0.036,0.033-0.076,0.035-0.118C81.771,133.688,81.768,133.663,81.766,133.638z"/>
			<path style="fill:#AE5733;" d="M79.244,134.735c-0.014-0.066-0.027-0.131-0.041-0.197c-0.006-0.028-0.019-0.05-0.041-0.067
				c-0.017-0.021-0.04-0.035-0.068-0.041c-0.019-0.003-0.038-0.006-0.057-0.008c-0.033-0.001-0.064,0.004-0.094,0.017
				c-0.023,0.005-0.044,0.014-0.063,0.028c-0.033,0.016-0.061,0.037-0.086,0.064c-0.014,0.018-0.028,0.035-0.041,0.053
				c-0.022,0.035-0.035,0.072-0.039,0.113c-0.014,0.074-0.028,0.149-0.042,0.223c-0.003,0.043,0.007,0.083,0.031,0.119
				c0.015,0.015,0.029,0.029,0.044,0.043c0.038,0.024,0.079,0.036,0.124,0.036c0.038,0.001,0.075-0.005,0.11-0.019
				c0.04-0.01,0.077-0.028,0.111-0.053c0.035-0.023,0.064-0.051,0.088-0.086c0.025-0.028,0.044-0.06,0.056-0.097
				C79.251,134.822,79.253,134.779,79.244,134.735z"/>
			<path style="fill:#AE5733;" d="M77.205,133.018c-0.007-0.033-0.023-0.059-0.048-0.078c-0.02-0.025-0.047-0.041-0.079-0.048
				l-0.092-0.024c-0.051-0.013-0.102-0.014-0.153-0.003c-0.059,0.013-0.113,0.037-0.162,0.072c-0.023,0.02-0.047,0.04-0.07,0.06
				c-0.039,0.04-0.068,0.087-0.088,0.14c-0.014,0.035-0.019,0.071-0.012,0.107c-0.001,0.035,0.01,0.067,0.031,0.096
				c0.058,0.083,0.172,0.1,0.264,0.08l0.109-0.024c0.025-0.008,0.05-0.016,0.075-0.024c0.04-0.016,0.075-0.039,0.105-0.069
				c0.023-0.016,0.041-0.035,0.056-0.058c0.025-0.028,0.044-0.06,0.056-0.097c0.004-0.022,0.009-0.044,0.014-0.066
				C77.208,133.06,77.206,133.039,77.205,133.018z"/>
			<path style="fill:#AE5733;" d="M95.473,139.628c-0.03-0.045-0.069-0.075-0.118-0.092c-0.047-0.027-0.099-0.04-0.155-0.037
				c-0.083,0-0.163,0.017-0.239,0.051c-0.079,0.035-0.157,0.087-0.218,0.15c-0.007,0.005-0.016,0.006-0.023,0.011
				c-0.03,0.026-0.06,0.051-0.089,0.077c-0.022,0.029-0.045,0.058-0.068,0.087c-0.029,0.042-0.047,0.089-0.054,0.139
				c-0.014,0.044-0.014,0.089-0.002,0.135c0.006,0.023,0.011,0.047,0.015,0.071c0.002,0.014,0.003,0.028,0.005,0.041
				c0.001,0.005,0.002,0.009,0.003,0.013c0,0.001,0.001,0.002,0.001,0.003c0.006,0.017,0.029,0.067,0.038,0.083
				c0.001,0.002,0.002,0.004,0.003,0.006c0.001,0.002,0.003,0.004,0.004,0.005c0.001,0.001,0.002,0.002,0.003,0.003
				c0.019,0.02,0.046,0.046,0.066,0.065c0.005,0.005,0.01,0.009,0.016,0.013c0.022,0.017,0.046,0.032,0.069,0.047
				c0.119,0.08,0.278,0.062,0.403,0.007c0.077-0.034,0.145-0.082,0.203-0.142c0.053-0.055,0.092-0.118,0.118-0.19
				c0.009-0.029,0.017-0.058,0.027-0.086c0.017-0.049,0.026-0.101,0.035-0.151c0.007-0.038,0.004-0.077,0.005-0.116
				C95.528,139.751,95.512,139.686,95.473,139.628z"/>
			<path style="fill:#AE5733;" d="M104.624,128.401c-0.014-0.034-0.028-0.069-0.046-0.1c-0.003-0.005-0.006-0.009-0.009-0.014
				c-0.024-0.029-0.052-0.054-0.08-0.079c-0.004-0.004-0.008-0.008-0.013-0.011c-0.009-0.007-0.019-0.013-0.03-0.018
				c-0.039-0.02-0.081-0.043-0.124-0.054c-0.047-0.012-0.095-0.018-0.143-0.021c-0.016-0.001-0.032-0.001-0.048,0.001
				c-0.055,0.005-0.112,0.007-0.166,0.02c-0.009,0.002-0.018,0.005-0.027,0.007c-0.005,0.001-0.009,0.003-0.014,0.004
				c-0.028,0.009-0.095,0.028-0.122,0.04c-0.002,0.001-0.003,0.001-0.005,0.002c-0.039,0.022-0.078,0.044-0.117,0.066
				c-0.009,0.006-0.018,0.013-0.027,0.02c-0.004,0.003-0.009,0.007-0.013,0.01c-0.005,0.004-0.015,0.012-0.022,0.018
				c-0.009,0.005-0.019,0.009-0.028,0.015c-0.065,0.041-0.119,0.108-0.162,0.17c-0.026,0.037-0.046,0.079-0.059,0.122
				c-0.01,0.032-0.016,0.067-0.021,0.1c-0.002,0.01-0.003,0.019-0.002,0.029c0.001,0.098,0.023,0.172,0.073,0.257
				c0.014,0.023,0.03,0.045,0.049,0.065c0.035,0.038,0.071,0.076,0.112,0.108c0.048,0.037,0.107,0.064,0.163,0.085
				c0.012,0.005,0.025,0.008,0.038,0.01c0.041,0.008,0.087,0.018,0.13,0.016c0.04-0.001,0.081-0.006,0.12-0.012
				c0.006-0.001,0.011-0.002,0.017-0.003c0.041-0.01,0.082-0.025,0.121-0.039c0.006-0.002,0.011-0.004,0.017-0.007
				c0.005-0.002,0.009-0.005,0.014-0.007c0.04-0.021,0.082-0.043,0.12-0.068c0.005-0.003,0.009-0.007,0.013-0.01
				c0.036-0.029,0.072-0.059,0.105-0.091c0.036-0.034,0.065-0.077,0.093-0.117c0.007-0.009,0.013-0.018,0.018-0.028
				c0.023-0.042,0.044-0.085,0.062-0.129c0.004-0.011,0.007-0.022,0.01-0.033c0.013-0.052,0.029-0.111,0.027-0.166
				C104.645,128.51,104.645,128.45,104.624,128.401z"/>
			<path style="fill:#AE5733;" d="M94.231,125.598l-0.06-0.06c-0.052-0.033-0.108-0.05-0.17-0.05
				c-0.052-0.002-0.103,0.007-0.151,0.026c-0.055,0.014-0.105,0.038-0.151,0.073c-0.048,0.031-0.088,0.07-0.12,0.117
				c-0.035,0.038-0.06,0.083-0.076,0.133c-0.006,0.03-0.012,0.061-0.019,0.091c-0.005,0.059,0.01,0.114,0.043,0.163l0.061,0.06
				c0.052,0.033,0.108,0.05,0.17,0.05c0.052,0.002,0.103-0.007,0.151-0.026c0.055-0.014,0.105-0.038,0.151-0.073
				c0.048-0.031,0.088-0.071,0.12-0.117c0.035-0.039,0.06-0.083,0.076-0.133c0.006-0.03,0.012-0.06,0.019-0.091
				C94.279,125.702,94.265,125.648,94.231,125.598z"/>
			<path style="fill:#AE5733;" d="M77.249,127.975c-0.002-0.013-0.004-0.027-0.008-0.04c-0.011-0.04-0.031-0.079-0.05-0.115
				c-0.006-0.011-0.012-0.022-0.02-0.032c-0.025-0.032-0.056-0.062-0.088-0.087c-0.033-0.026-0.076-0.042-0.114-0.057
				c-0.013-0.005-0.025-0.01-0.039-0.013c-0.045-0.01-0.094-0.018-0.141-0.019c-0.052,0-0.105,0.007-0.157,0.015
				c-0.067,0.01-0.13,0.04-0.188,0.073c-0.026,0.015-0.053,0.029-0.078,0.045c-0.02,0.013-0.038,0.027-0.056,0.042
				c-0.029,0.025-0.058,0.05-0.088,0.075c-0.039,0.037-0.068,0.081-0.088,0.13c-0.021,0.045-0.039,0.099-0.041,0.152
				c-0.02,0.035-0.04,0.07-0.056,0.109c-0.018,0.044-0.026,0.092-0.034,0.138c-0.007,0.045-0.001,0.092,0.005,0.137
				c0.003,0.022,0.01,0.043,0.018,0.064c0.019,0.043,0.037,0.089,0.067,0.126c0.04,0.049,0.091,0.101,0.149,0.131
				c0.08,0.042,0.144,0.064,0.236,0.067c0.044,0.002,0.089-0.004,0.131-0.012c0.046-0.008,0.091-0.025,0.134-0.042
				c0.046-0.018,0.089-0.046,0.131-0.072c0.043-0.027,0.08-0.064,0.117-0.097c0.048-0.042,0.087-0.095,0.123-0.148
				c0.036-0.052,0.062-0.112,0.086-0.17c0.012-0.029,0.021-0.059,0.028-0.09c0.013-0.058,0.029-0.119,0.029-0.18
				C77.259,128.061,77.254,128.018,77.249,127.975z"/>
			<path style="fill:#AE5733;" d="M70.755,121.762c-0.007-0.025-0.019-0.047-0.031-0.069c0,0,0,0,0-0.001
				c0.005,0.011,0.01,0.023,0.016,0.034c-0.008-0.018-0.011-0.037-0.015-0.056c0-0.006,0-0.012,0-0.018
				c0.004-0.034-0.002-0.065-0.019-0.093c-0.01-0.031-0.03-0.056-0.058-0.073c-0.02-0.009-0.039-0.018-0.059-0.027
				c-0.035-0.011-0.07-0.013-0.106-0.006c-0.026,0-0.051,0.005-0.076,0.016c-0.041,0.01-0.079,0.029-0.113,0.055
				c-0.022,0.019-0.044,0.037-0.065,0.056c-0.037,0.038-0.064,0.082-0.082,0.131c-0.008,0.031-0.015,0.063-0.02,0.095
				c-0.002,0.011-0.003,0.021-0.003,0.032c0,0.01,0,0.02,0,0.029c0.002,0.031,0.004,0.062,0.009,0.093
				c0.002,0.01,0.004,0.019,0.007,0.028c0.002,0.005,0.003,0.01,0.005,0.015c0.001,0.002,0.002,0.004,0.002,0.006
				c0,0.001,0.001,0.002,0.001,0.003c0.009,0.02,0.018,0.04,0.027,0.06c0.003,0.004,0.006,0.008,0.01,0.012
				c0.018,0.018,0.036,0.036,0.055,0.054c0.008,0.007,0.016,0.014,0.024,0.02c0.019,0.009,0.039,0.018,0.058,0.027
				c0.035,0.011,0.07,0.013,0.104,0.006c0.026,0,0.051-0.005,0.075-0.016c0.041-0.01,0.078-0.028,0.112-0.054l0.065-0.055
				L70.729,122c0.021-0.031,0.034-0.064,0.039-0.1c0.01-0.032,0.01-0.064,0.001-0.097C70.764,121.789,70.759,121.776,70.755,121.762
				z"/>
		</g>
		<g style="opacity:0.47;">
			<path style="fill:#AE5733;" d="M160.067,128.555c-0.012-0.037-0.035-0.067-0.07-0.088c-0.034-0.024-0.071-0.037-0.112-0.039
				c-0.043-0.01-0.087-0.009-0.13,0.003c-0.031,0.01-0.061,0.02-0.092,0.03c-0.064,0.028-0.12,0.068-0.168,0.118
				c-0.02,0.025-0.04,0.051-0.059,0.076c-0.032,0.05-0.05,0.104-0.056,0.162v0.107c-0.005,0.041,0.002,0.078,0.023,0.112
				c0.012,0.037,0.036,0.067,0.07,0.088c0.034,0.024,0.071,0.037,0.112,0.039c0.043,0.01,0.087,0.009,0.13-0.003
				c0.031-0.01,0.061-0.02,0.092-0.03c0.064-0.028,0.12-0.068,0.168-0.118c0.02-0.026,0.04-0.051,0.059-0.076
				c0.032-0.05,0.05-0.104,0.056-0.162v-0.107C160.095,128.627,160.087,128.589,160.067,128.555z"/>
			<path style="fill:#AE5733;" d="M163.595,127.687c-0.342,0-0.663,0.608-0.209,0.608
				C163.728,128.296,164.049,127.687,163.595,127.687z"/>
			<path style="fill:#AE5733;" d="M167.709,127.435c-0.006-0.05-0.016-0.099-0.031-0.148c-0.006-0.018-0.014-0.035-0.023-0.052
				c-0.008-0.05-0.026-0.099-0.072-0.128c-0.066-0.041-0.135-0.04-0.211-0.031c-0.085-0.005-0.172,0.003-0.244,0.043
				c-0.035,0.019-0.067,0.04-0.1,0.059c-0.141,0.065-0.271,0.154-0.374,0.266c-0.19,0.206-0.297,0.471-0.318,0.749
				c-0.005,0.072,0.021,0.139,0.071,0.189c0.055,0.054,0.118,0.071,0.196,0.078c0.112,0.01,0.223,0.004,0.334-0.013
				c0.138-0.021,0.262-0.079,0.381-0.149c0.058-0.035,0.11-0.081,0.158-0.128c0.047-0.045,0.089-0.1,0.123-0.156
				c0.067-0.11,0.107-0.233,0.119-0.362C167.725,127.581,167.716,127.506,167.709,127.435z"/>
			<path style="fill:#AE5733;" d="M173.427,128.895c-0.009-0.044-0.031-0.08-0.065-0.106c-0.028-0.034-0.064-0.056-0.108-0.066
				c-0.011-0.004-0.023-0.009-0.034-0.013c-0.025-0.004-0.051-0.007-0.077-0.011c-0.044-0.002-0.086,0.006-0.126,0.022
				c-0.031,0.007-0.059,0.019-0.085,0.037c-0.044,0.021-0.082,0.05-0.115,0.086l-0.042,0.039c-0.022,0.028-0.044,0.056-0.066,0.084
				c-0.029,0.041-0.046,0.086-0.052,0.135c-0.01,0.029-0.012,0.058-0.006,0.088c-0.002,0.03,0.005,0.057,0.021,0.081
				c0.013,0.041,0.039,0.074,0.078,0.098l0.078,0.036l0.091,0.013c0.052,0.002,0.102-0.007,0.15-0.026
				c0.037-0.008,0.07-0.023,0.101-0.045c0.035-0.016,0.066-0.038,0.093-0.065c0.044-0.033,0.081-0.074,0.109-0.122
				c0.014-0.03,0.029-0.06,0.043-0.09c0.006-0.03,0.012-0.06,0.019-0.09C173.432,128.953,173.429,128.924,173.427,128.895z"/>
			<path style="fill:#AE5733;" d="M175.206,130.948c-0.416,0-0.806,0.74-0.254,0.74
				C175.369,131.688,175.759,130.948,175.206,130.948z"/>
			<path style="fill:#AE5733;" d="M168.243,132.8c-0.006-0.051-0.017-0.101-0.036-0.149c-0.056-0.147-0.138-0.277-0.275-0.363
				c-0.166-0.104-0.362-0.134-0.554-0.1c-0.055,0.01-0.11,0.028-0.164,0.05c-0.18,0.053-0.331,0.172-0.446,0.328
				c-0.112,0.153-0.173,0.343-0.197,0.529c-0.023,0.186,0.013,0.37,0.107,0.531c0.11,0.189,0.31,0.277,0.519,0.3
				c0.111,0.012,0.231-0.002,0.338-0.033c0.234-0.066,0.422-0.204,0.559-0.404c0.09-0.131,0.139-0.294,0.156-0.451
				C168.26,132.96,168.252,132.879,168.243,132.8z"/>
			<path style="fill:#AE5733;" d="M148.63,127.766c-0.001-0.004-0.004-0.006-0.006-0.01c-0.023-0.057-0.03-0.118-0.044-0.178
				c0.021-0.052,0.029-0.109,0.014-0.166c-0.02-0.075-0.072-0.117-0.135-0.141c-0.005-0.013-0.011-0.025-0.016-0.038
				c-0.027-0.064-0.055-0.128-0.084-0.191c-0.032-0.044-0.074-0.073-0.126-0.087c-0.057-0.015-0.115-0.016-0.174-0.003
				c-0.13,0.027-0.255,0.113-0.323,0.227c-0.097,0.16-0.186,0.325-0.254,0.501c-0.039,0.101-0.016,0.228,0.078,0.291
				c0.027,0.018,0.054,0.034,0.083,0.048c0.042,0.02,0.085,0.044,0.131,0.053c0.11,0.023,0.214,0.01,0.318-0.028
				c0.001,0.001,0.001,0.001,0.002,0.002c0.047,0.049,0.076,0.077,0.147,0.087c0.136,0.02,0.28-0.062,0.351-0.177
				C148.624,127.905,148.651,127.827,148.63,127.766z"/>
			<path style="fill:#AE5733;" d="M149.444,124.213c-0.388,0-0.751,0.69-0.236,0.69
				C149.596,124.903,149.959,124.213,149.444,124.213z"/>
			<path style="fill:#AE5733;" d="M152.629,132.642c-0.005-0.034-0.009-0.068-0.014-0.101c-0.009-0.045-0.031-0.081-0.066-0.108
				c-0.028-0.035-0.065-0.057-0.11-0.067c-0.031-0.005-0.062-0.009-0.093-0.014c-0.053-0.002-0.104,0.007-0.153,0.027
				c-0.037,0.008-0.071,0.023-0.102,0.045c-0.053,0.025-0.099,0.06-0.139,0.104c-0.022,0.029-0.044,0.057-0.067,0.086
				c-0.036,0.056-0.057,0.117-0.063,0.183l-0.014,0.11c-0.005,0.062,0.01,0.119,0.045,0.171c0.021,0.021,0.042,0.042,0.063,0.062
				c0.054,0.035,0.114,0.052,0.178,0.052c0.055,0.002,0.108-0.007,0.158-0.028c0.057-0.015,0.11-0.04,0.159-0.077
				c0.051-0.033,0.093-0.074,0.126-0.123c0.036-0.04,0.063-0.087,0.08-0.139C152.639,132.767,152.643,132.705,152.629,132.642z"/>
			<path style="fill:#AE5733;" d="M178.765,129.932c0-0.007-0.006-0.077-0.007-0.084c0-0.001,0-0.002-0.001-0.003
				s-0.001-0.002-0.001-0.003c0-0.001,0-0.001-0.001-0.002c0-0.001-0.032-0.071-0.033-0.072c0,0,0-0.001,0-0.001
				c-0.001-0.002-0.003-0.004-0.004-0.007c-0.018-0.021-0.039-0.041-0.06-0.059c-0.033-0.023-0.068-0.035-0.107-0.037
				c-0.016-0.004-0.032,0.002-0.048,0.001c-0.006-0.001-0.011-0.002-0.017-0.002c-0.012,0.001-0.024,0.002-0.036,0.004
				c-0.008,0.001-0.016-0.002-0.025,0.001c-0.003,0.001-0.006,0.002-0.008,0.003c-0.011,0.001-0.021,0.002-0.032,0.003
				c-0.004,0.001-0.008,0.003-0.012,0.004c-0.007,0.002-0.014,0.004-0.021,0.004c0.004,0,0.008-0.001,0.011-0.001
				c-0.004,0.001-0.008,0.003-0.012,0.004c-0.027,0.004-0.055,0.004-0.081,0.014c-0.055,0.014-0.106,0.039-0.152,0.073
				c-0.029,0.025-0.058,0.05-0.088,0.075c-0.039,0.038-0.068,0.081-0.088,0.13c-0.018,0.028-0.028,0.058-0.031,0.091
				c-0.013,0.043-0.014,0.087-0.002,0.132c0.012,0.026,0.024,0.052,0.035,0.077c0.035,0.048,0.082,0.08,0.139,0.096
				c0.033,0.005,0.067,0.01,0.1,0.015c0.003,0,0.007,0.001,0.01,0.001c0.005,0,0.011,0.001,0.017,0c0.003,0,0.005,0,0.008-0.001
				c0.034-0.003,0.069-0.006,0.103-0.01c0.001,0,0.003,0,0.004,0c0.002,0,0.005-0.001,0.007-0.002c0.001,0,0.002,0,0.003-0.001
				c0.001,0,0.001,0,0.002,0c0.018-0.006,0.035-0.011,0.053-0.017c0.017-0.006,0.035-0.011,0.052-0.017
				c0.002-0.001,0.1-0.056,0.102-0.057c0.001-0.001,0.088-0.076,0.089-0.076c0.001-0.001,0.066-0.085,0.067-0.086
				c0.001-0.001,0.044-0.091,0.044-0.092c0-0.001,0.001-0.002,0.001-0.003c0-0.001,0-0.001,0.001-0.002
				c0.001-0.004,0.018-0.086,0.019-0.09c0-0.001,0-0.002,0-0.003C178.765,129.933,178.765,129.932,178.765,129.932z"/>
			<g>
				<path style="fill:#AE5733;" d="M181.354,124.716c-0.014-0.055-0.045-0.099-0.092-0.131c-0.032-0.03-0.063-0.061-0.096-0.089
					c-0.007-0.006-0.015-0.012-0.023-0.018c-0.003-0.002-0.006-0.004-0.009-0.006c-0.018-0.01-0.082-0.034-0.093-0.04
					c-0.055-0.015-0.079-0.012-0.133-0.007c-0.078,0.008-0.056,0.002-0.156,0.039c-0.001,0-0.003,0.001-0.004,0.001
					c-0.072,0.033-0.138,0.077-0.193,0.135c-0.025,0.026-0.048,0.055-0.067,0.086c-0.029,0.048-0.062,0.122-0.062,0.181
					c0,0.001,0.007,0.085,0.008,0.086c0.006,0.027,0.019,0.054,0.035,0.077c0.001,0.001,0.002,0.002,0.003,0.003
					c0,0,0,0.001,0,0.001l0-0.001c0.001,0.002,0.004,0.003,0.005,0.005c0.015,0.023,0.033,0.044,0.058,0.059
					c0.026,0.014,0.053,0.027,0.081,0.037c0.002,0,0.004,0.001,0.007,0.002c0.005,0.001,0.01,0.003,0.016,0.005
					c0.001,0,0.001,0.001,0.002,0.001c0.015,0.007,0.029,0.014,0.044,0.022c0.006,0.003,0.012,0.006,0.018,0.009
					c0.036,0.025,0.076,0.039,0.119,0.041c0.046,0.01,0.093,0.009,0.139-0.003c0.053-0.01,0.102-0.03,0.146-0.059
					c0.05-0.024,0.094-0.057,0.132-0.099c0.021-0.027,0.042-0.054,0.063-0.081c0.034-0.053,0.054-0.111,0.059-0.174
					C181.359,124.771,181.356,124.744,181.354,124.716z"/>
				<path style="fill:#AE5733;" d="M181.04,124.433c0.005,0.001,0.007,0.001,0.012,0.002
					C181.038,124.431,181.036,124.431,181.04,124.433z"/>
			</g>
			<path style="fill:#AE5733;" d="M177.355,124.285c-0.036-0.045-0.095-0.079-0.154-0.073c-0.041,0.004-0.082,0.008-0.122,0.012
				c-0.023,0.002-0.046,0.004-0.069,0.006c-0.008-0.055-0.03-0.112-0.077-0.141c-0.066-0.041-0.148-0.051-0.223-0.033
				c-0.088,0.021-0.18,0.066-0.24,0.136c-0.056,0.065-0.103,0.128-0.133,0.21c-0.009,0.025-0.014,0.058-0.016,0.084
				c-0.001,0.011,0.002,0.055,0.008,0.079c0.003,0.01,0.018,0.039,0.015,0.034c-0.006-0.012,0.01,0.026,0.016,0.034
				c0.014,0.02,0.04,0.044,0.053,0.054c0.003,0.002,0.006,0.004,0.009,0.006c0.015,0.009,0.047,0.023,0.064,0.03
				c0.002,0.001,0.004,0.002,0.006,0.002c0.03,0.009,0.063,0.013,0.094,0.014c0.029,0.001,0.058-0.005,0.087-0.009
				c0.145,0.001,0.29-0.027,0.433-0.048c0.037-0.007,0.071-0.021,0.102-0.041c0.035-0.017,0.066-0.04,0.092-0.069
				c0.038-0.043,0.068-0.09,0.079-0.147C177.386,124.379,177.385,124.324,177.355,124.285z"/>
			<path style="fill:#AE5733;" d="M175.62,136.361c-0.364,0-0.704,0.646-0.221,0.646
				C175.762,137.007,176.102,136.361,175.62,136.361z"/>
			<path style="fill:#AE5733;" d="M171.319,137.888c-0.335,0-0.649,0.596-0.204,0.596
				C171.45,138.484,171.763,137.888,171.319,137.888z"/>
			<path style="fill:#AE5733;" d="M163.919,136.051c-0.349,0-0.676,0.621-0.213,0.621
				C164.055,136.672,164.382,136.051,163.919,136.051z"/>
			<path style="fill:#AE5733;" d="M166.18,132.804c-0.019-0.018-0.038-0.037-0.056-0.055c-0.048-0.031-0.101-0.046-0.159-0.046
				c-0.031,0.003-0.062,0.006-0.093,0.009c-0.069,0.015-0.131,0.043-0.189,0.084c-0.042,0.035-0.091,0.071-0.126,0.116
				c-0.023,0.029-0.047,0.058-0.068,0.088c-0.003,0.005-0.006,0.009-0.009,0.014c-0.021,0.034-0.036,0.072-0.053,0.108
				c-0.019,0.042-0.026,0.094-0.034,0.137c-0.004,0.022-0.005,0.045-0.004,0.067c-0.005,0.041,0.002,0.078,0.023,0.112
				c0.012,0.037,0.035,0.066,0.07,0.088c0.034,0.024,0.071,0.037,0.112,0.039c0.043,0.01,0.087,0.009,0.131-0.003
				c0.031-0.01,0.061-0.02,0.092-0.03c0.064-0.028,0.12-0.068,0.168-0.118c0.02-0.025,0.04-0.051,0.059-0.076
				c0.026-0.041,0.042-0.087,0.05-0.134c0.012-0.013,0.028-0.023,0.039-0.038c0.032-0.036,0.056-0.077,0.071-0.124
				c0.017-0.041,0.021-0.083,0.014-0.125C166.217,132.876,166.205,132.838,166.18,132.804z"/>
			<path style="fill:#AE5733;" d="M158.678,133.638c-0.013-0.05-0.041-0.09-0.083-0.119c-0.023-0.011-0.046-0.021-0.068-0.032
				c-0.025-0.007-0.05-0.01-0.075-0.011c-0.001-0.028-0.002-0.055-0.016-0.08c-0.011-0.035-0.033-0.062-0.065-0.082
				c-0.022-0.01-0.044-0.02-0.066-0.031c-0.039-0.012-0.078-0.014-0.118-0.007c-0.029,0-0.057,0.006-0.084,0.018
				c-0.046,0.012-0.088,0.032-0.127,0.061l-0.073,0.063c-0.041,0.042-0.072,0.091-0.091,0.146c-0.012,0.056-0.028,0.116-0.028,0.174
				c0,0.038,0.003,0.076,0.009,0.113c0.002,0.012,0.005,0.023,0.009,0.034c0.011,0.027,0.023,0.054,0.037,0.08
				c0.002,0.005,0.005,0.009,0.009,0.014c0.013,0.018,0.05,0.056,0.078,0.071c0.002,0.001,0.004,0.002,0.007,0.003
				c0.024,0.012,0.049,0.024,0.075,0.035c0.005,0.002,0.011,0.004,0.016,0.005c0.018,0.005,0.038,0.006,0.056,0.009
				c0.019,0.003,0.039,0.007,0.058,0.007c0.007,0,0.014,0,0.021,0c0.036-0.002,0.073-0.006,0.109-0.011
				c0.018-0.002,0.036-0.007,0.054-0.012c0.048-0.009,0.092-0.027,0.133-0.054c0.046-0.022,0.085-0.052,0.12-0.09
				c0.034-0.033,0.059-0.07,0.076-0.113c0.021-0.036,0.033-0.076,0.035-0.118C158.682,133.688,158.68,133.663,158.678,133.638z"/>
			<path style="fill:#AE5733;" d="M156.155,134.735c-0.014-0.066-0.027-0.131-0.041-0.197c-0.006-0.028-0.019-0.05-0.041-0.067
				c-0.018-0.021-0.04-0.035-0.068-0.041c-0.019-0.003-0.038-0.006-0.057-0.008c-0.033-0.001-0.064,0.004-0.094,0.017
				c-0.023,0.005-0.044,0.014-0.063,0.028c-0.033,0.016-0.061,0.037-0.086,0.064c-0.014,0.018-0.028,0.035-0.041,0.053
				c-0.022,0.035-0.035,0.072-0.039,0.113c-0.014,0.074-0.028,0.149-0.042,0.223c-0.003,0.043,0.007,0.083,0.031,0.119
				c0.015,0.015,0.029,0.029,0.044,0.043c0.038,0.024,0.079,0.036,0.124,0.036c0.038,0.001,0.075-0.005,0.11-0.019
				c0.04-0.01,0.077-0.028,0.111-0.053c0.035-0.023,0.065-0.051,0.088-0.086c0.025-0.028,0.044-0.06,0.056-0.097
				C156.162,134.822,156.165,134.779,156.155,134.735z"/>
			<path style="fill:#AE5733;" d="M154.116,133.018c-0.007-0.033-0.023-0.059-0.048-0.078c-0.02-0.025-0.047-0.041-0.079-0.048
				l-0.092-0.024c-0.051-0.013-0.102-0.014-0.153-0.003c-0.059,0.013-0.113,0.037-0.162,0.072c-0.023,0.02-0.047,0.04-0.07,0.06
				c-0.039,0.04-0.068,0.087-0.087,0.14c-0.014,0.035-0.018,0.071-0.012,0.107c-0.001,0.035,0.009,0.067,0.031,0.096
				c0.058,0.083,0.172,0.1,0.264,0.08l0.109-0.024c0.025-0.008,0.05-0.016,0.075-0.024c0.04-0.016,0.075-0.039,0.105-0.069
				c0.023-0.016,0.041-0.035,0.056-0.058c0.025-0.028,0.044-0.06,0.056-0.097c0.005-0.022,0.009-0.044,0.014-0.066
				C154.12,133.06,154.118,133.039,154.116,133.018z"/>
			<path style="fill:#AE5733;" d="M172.384,139.628c-0.029-0.045-0.069-0.075-0.118-0.092c-0.047-0.027-0.099-0.04-0.155-0.037
				c-0.083,0-0.163,0.017-0.239,0.051c-0.079,0.035-0.157,0.087-0.218,0.15c-0.007,0.005-0.016,0.006-0.023,0.011
				c-0.03,0.026-0.06,0.051-0.089,0.077c-0.023,0.029-0.045,0.058-0.068,0.087c-0.029,0.042-0.047,0.089-0.054,0.139
				c-0.014,0.044-0.014,0.089-0.002,0.135c0.006,0.023,0.011,0.047,0.015,0.071c0.002,0.014,0.003,0.028,0.005,0.041
				c0.001,0.005,0.002,0.009,0.003,0.013c0,0.001,0.001,0.002,0.001,0.003c0.007,0.017,0.029,0.067,0.038,0.083
				c0.001,0.002,0.002,0.004,0.003,0.006c0.001,0.002,0.003,0.004,0.004,0.005c0.001,0.001,0.002,0.002,0.003,0.003
				c0.019,0.02,0.046,0.046,0.066,0.065c0.005,0.005,0.01,0.009,0.016,0.013c0.022,0.017,0.046,0.032,0.069,0.047
				c0.119,0.08,0.278,0.062,0.403,0.007c0.077-0.034,0.145-0.082,0.203-0.142c0.053-0.055,0.092-0.118,0.118-0.19
				c0.009-0.029,0.017-0.058,0.027-0.086c0.018-0.049,0.026-0.101,0.035-0.151c0.007-0.038,0.004-0.077,0.005-0.116
				C172.44,139.751,172.423,139.686,172.384,139.628z"/>
			<path style="fill:#AE5733;" d="M181.536,128.401c-0.014-0.034-0.028-0.069-0.046-0.1c-0.003-0.005-0.005-0.009-0.009-0.014
				c-0.024-0.029-0.053-0.054-0.08-0.079c-0.004-0.004-0.008-0.008-0.012-0.011c-0.009-0.007-0.019-0.013-0.03-0.018
				c-0.039-0.02-0.081-0.043-0.124-0.054c-0.047-0.012-0.095-0.018-0.143-0.021c-0.016-0.001-0.032-0.001-0.048,0.001
				c-0.055,0.005-0.112,0.007-0.166,0.02c-0.009,0.002-0.018,0.005-0.027,0.007c-0.005,0.001-0.009,0.003-0.014,0.004
				c-0.028,0.009-0.095,0.028-0.122,0.04c-0.002,0.001-0.003,0.001-0.005,0.002c-0.039,0.022-0.078,0.044-0.117,0.066
				c-0.009,0.006-0.018,0.013-0.027,0.02c-0.004,0.003-0.008,0.007-0.013,0.01c-0.005,0.004-0.015,0.012-0.022,0.018
				c-0.009,0.005-0.019,0.009-0.027,0.015c-0.065,0.041-0.119,0.108-0.162,0.17c-0.026,0.037-0.046,0.079-0.059,0.122
				c-0.01,0.032-0.016,0.067-0.021,0.1c-0.001,0.01-0.002,0.019-0.002,0.029c0.001,0.098,0.023,0.172,0.073,0.257
				c0.014,0.023,0.031,0.045,0.049,0.065c0.035,0.038,0.071,0.076,0.112,0.108c0.048,0.037,0.107,0.064,0.163,0.085
				c0.012,0.005,0.025,0.008,0.038,0.01c0.041,0.008,0.087,0.018,0.13,0.016c0.04-0.001,0.081-0.006,0.12-0.012
				c0.006-0.001,0.011-0.002,0.017-0.003c0.041-0.01,0.082-0.025,0.121-0.039c0.006-0.002,0.011-0.004,0.017-0.007
				c0.005-0.002,0.009-0.005,0.014-0.007c0.04-0.021,0.082-0.043,0.12-0.068c0.005-0.003,0.009-0.007,0.013-0.01
				c0.036-0.029,0.072-0.059,0.105-0.091c0.035-0.034,0.065-0.077,0.093-0.117c0.007-0.009,0.013-0.018,0.018-0.028
				c0.023-0.042,0.044-0.085,0.061-0.129c0.004-0.011,0.008-0.022,0.01-0.033c0.013-0.052,0.029-0.111,0.027-0.166
				C181.556,128.51,181.556,128.45,181.536,128.401z"/>
			<path style="fill:#AE5733;" d="M171.143,125.598l-0.061-0.06c-0.052-0.033-0.109-0.05-0.17-0.05
				c-0.052-0.002-0.103,0.007-0.151,0.026c-0.055,0.014-0.105,0.038-0.151,0.073c-0.048,0.031-0.088,0.07-0.12,0.117
				c-0.035,0.038-0.06,0.083-0.076,0.133c-0.006,0.03-0.012,0.061-0.019,0.091c-0.005,0.059,0.01,0.114,0.043,0.163l0.06,0.06
				c0.052,0.033,0.108,0.05,0.17,0.05c0.053,0.002,0.103-0.007,0.151-0.026c0.055-0.014,0.105-0.038,0.152-0.073
				c0.048-0.031,0.088-0.071,0.12-0.117c0.035-0.039,0.06-0.083,0.076-0.133c0.006-0.03,0.012-0.06,0.019-0.091
				C171.19,125.702,171.176,125.648,171.143,125.598z"/>
			<path style="fill:#AE5733;" d="M154.16,127.975c-0.002-0.013-0.004-0.027-0.008-0.04c-0.011-0.04-0.031-0.079-0.05-0.115
				c-0.006-0.011-0.012-0.022-0.02-0.032c-0.025-0.032-0.056-0.062-0.088-0.087c-0.033-0.026-0.077-0.042-0.114-0.057
				c-0.013-0.005-0.025-0.01-0.039-0.013c-0.045-0.01-0.094-0.018-0.141-0.019c-0.052,0-0.105,0.007-0.157,0.015
				c-0.067,0.01-0.13,0.04-0.188,0.073c-0.026,0.015-0.053,0.029-0.078,0.045c-0.02,0.013-0.038,0.027-0.056,0.042
				c-0.029,0.025-0.058,0.05-0.088,0.075c-0.039,0.037-0.068,0.081-0.088,0.13c-0.021,0.045-0.039,0.099-0.041,0.152
				c-0.02,0.035-0.04,0.07-0.056,0.109c-0.018,0.044-0.026,0.092-0.034,0.138c-0.008,0.045-0.001,0.092,0.005,0.137
				c0.003,0.022,0.01,0.043,0.018,0.064c0.018,0.043,0.037,0.089,0.067,0.126c0.04,0.049,0.091,0.101,0.149,0.131
				c0.08,0.042,0.144,0.064,0.236,0.067c0.044,0.002,0.089-0.004,0.131-0.012c0.046-0.008,0.091-0.025,0.134-0.042
				c0.046-0.018,0.089-0.046,0.131-0.072c0.043-0.027,0.08-0.064,0.117-0.097c0.048-0.042,0.087-0.095,0.123-0.148
				c0.035-0.052,0.062-0.112,0.086-0.17c0.012-0.029,0.021-0.059,0.028-0.09c0.013-0.058,0.029-0.119,0.029-0.18
				C154.17,128.061,154.166,128.018,154.16,127.975z"/>
			<path style="fill:#AE5733;" d="M147.666,121.762c-0.007-0.025-0.019-0.047-0.031-0.069c0,0,0,0,0-0.001
				c0.005,0.011,0.01,0.023,0.016,0.034c-0.008-0.018-0.011-0.037-0.015-0.056c0-0.006,0-0.012,0-0.018
				c0.004-0.034-0.002-0.065-0.019-0.093c-0.01-0.031-0.029-0.056-0.058-0.073c-0.02-0.009-0.039-0.018-0.059-0.027
				c-0.035-0.011-0.07-0.013-0.106-0.006c-0.026,0-0.051,0.005-0.076,0.016c-0.041,0.01-0.079,0.029-0.113,0.055
				c-0.022,0.019-0.044,0.037-0.065,0.056c-0.037,0.038-0.064,0.082-0.082,0.131c-0.008,0.031-0.015,0.063-0.02,0.095
				c-0.002,0.011-0.003,0.021-0.003,0.032c0,0.01,0,0.02,0,0.029c0.002,0.031,0.004,0.062,0.009,0.093
				c0.002,0.01,0.004,0.019,0.007,0.028c0.001,0.005,0.003,0.01,0.005,0.015c0.001,0.002,0.002,0.004,0.003,0.006
				c0,0.001,0.001,0.002,0.001,0.003c0.009,0.02,0.018,0.04,0.027,0.06c0.003,0.004,0.006,0.008,0.01,0.012
				c0.018,0.018,0.036,0.036,0.055,0.054c0.008,0.007,0.016,0.014,0.025,0.02c0.019,0.009,0.039,0.018,0.058,0.027
				c0.035,0.011,0.07,0.013,0.105,0.006c0.026,0,0.051-0.005,0.075-0.016c0.041-0.01,0.078-0.028,0.112-0.054l0.064-0.055
				l0.049-0.063c0.021-0.031,0.034-0.064,0.039-0.1c0.01-0.032,0.01-0.064,0.001-0.097
				C147.675,121.789,147.67,121.776,147.666,121.762z"/>
		</g>
		<g style="opacity:0.47;">
			<path style="fill:#AE5733;" d="M120.574,118.24c-0.012-0.037-0.035-0.067-0.07-0.088c-0.034-0.024-0.071-0.037-0.112-0.039
				c-0.043-0.01-0.087-0.009-0.13,0.003c-0.031,0.01-0.061,0.02-0.092,0.03c-0.064,0.028-0.12,0.068-0.168,0.118
				c-0.02,0.025-0.04,0.051-0.059,0.076c-0.032,0.05-0.05,0.104-0.056,0.162v0.107c-0.005,0.041,0.002,0.078,0.022,0.112
				c0.012,0.037,0.035,0.067,0.07,0.088c0.034,0.024,0.071,0.037,0.112,0.039c0.043,0.01,0.087,0.009,0.131-0.003
				c0.031-0.01,0.061-0.02,0.092-0.03c0.064-0.028,0.12-0.068,0.168-0.118c0.02-0.025,0.04-0.051,0.059-0.076
				c0.032-0.05,0.05-0.104,0.056-0.162v-0.107C120.602,118.312,120.594,118.274,120.574,118.24z"/>
			<path style="fill:#AE5733;" d="M124.102,117.372c-0.342,0-0.663,0.608-0.208,0.608
				C124.236,117.981,124.556,117.372,124.102,117.372z"/>
			<path style="fill:#AE5733;" d="M128.216,117.12c-0.005-0.05-0.016-0.099-0.031-0.148c-0.006-0.018-0.014-0.035-0.023-0.052
				c-0.008-0.05-0.026-0.099-0.072-0.127c-0.067-0.041-0.135-0.04-0.211-0.031c-0.085-0.005-0.172,0.004-0.244,0.043
				c-0.035,0.019-0.067,0.039-0.1,0.059c-0.141,0.065-0.271,0.154-0.374,0.266c-0.19,0.206-0.297,0.47-0.318,0.749
				c-0.005,0.072,0.021,0.139,0.071,0.189c0.055,0.055,0.118,0.071,0.196,0.078c0.112,0.01,0.223,0.004,0.334-0.013
				c0.138-0.021,0.262-0.079,0.381-0.149c0.058-0.034,0.11-0.081,0.158-0.128c0.047-0.046,0.089-0.1,0.123-0.156
				c0.067-0.11,0.107-0.233,0.119-0.362C128.233,117.266,128.224,117.191,128.216,117.12z"/>
			<path style="fill:#AE5733;" d="M133.934,118.58c-0.009-0.044-0.031-0.08-0.065-0.106c-0.028-0.034-0.064-0.056-0.108-0.066
				c-0.011-0.004-0.022-0.009-0.034-0.013c-0.026-0.004-0.051-0.007-0.077-0.011c-0.044-0.002-0.086,0.006-0.126,0.022
				c-0.031,0.007-0.059,0.019-0.085,0.038c-0.044,0.021-0.082,0.05-0.115,0.086l-0.042,0.039c-0.022,0.028-0.044,0.056-0.066,0.084
				c-0.029,0.041-0.046,0.086-0.052,0.135c-0.01,0.029-0.012,0.058-0.006,0.088c-0.002,0.029,0.005,0.057,0.021,0.081
				c0.013,0.041,0.039,0.074,0.078,0.097l0.078,0.036l0.091,0.013c0.052,0.002,0.102-0.007,0.15-0.026
				c0.037-0.008,0.07-0.023,0.101-0.045c0.035-0.016,0.066-0.037,0.093-0.065c0.044-0.033,0.081-0.073,0.109-0.122
				c0.014-0.03,0.029-0.06,0.043-0.09c0.006-0.03,0.012-0.06,0.019-0.09C133.939,118.638,133.936,118.609,133.934,118.58z"/>
			<path style="fill:#AE5733;" d="M135.714,120.633c-0.416,0-0.806,0.74-0.254,0.74
				C135.877,121.373,136.266,120.633,135.714,120.633z"/>
			<path style="fill:#AE5733;" d="M128.751,122.485c-0.006-0.051-0.017-0.101-0.036-0.149c-0.056-0.147-0.138-0.278-0.275-0.363
				c-0.166-0.104-0.362-0.134-0.554-0.1c-0.055,0.01-0.11,0.028-0.164,0.05c-0.181,0.053-0.332,0.172-0.446,0.328
				c-0.112,0.153-0.173,0.343-0.197,0.529c-0.023,0.186,0.013,0.37,0.107,0.531c0.11,0.189,0.31,0.277,0.519,0.3
				c0.111,0.012,0.231-0.002,0.338-0.033c0.234-0.066,0.422-0.204,0.559-0.404c0.09-0.131,0.139-0.294,0.156-0.451
				C128.768,122.645,128.76,122.564,128.751,122.485z"/>
			<path style="fill:#AE5733;" d="M109.137,117.451c-0.001-0.004-0.004-0.006-0.006-0.01c-0.023-0.057-0.03-0.118-0.044-0.178
				c0.021-0.052,0.029-0.109,0.014-0.166c-0.02-0.075-0.072-0.117-0.135-0.141c-0.005-0.013-0.011-0.025-0.016-0.038
				c-0.027-0.064-0.055-0.128-0.084-0.191c-0.032-0.044-0.074-0.073-0.126-0.087c-0.058-0.015-0.115-0.016-0.174-0.003
				c-0.13,0.027-0.255,0.113-0.323,0.227c-0.097,0.16-0.186,0.325-0.254,0.501c-0.039,0.102-0.016,0.228,0.078,0.291
				c0.027,0.018,0.054,0.034,0.083,0.048c0.042,0.02,0.085,0.044,0.131,0.053c0.11,0.023,0.214,0.01,0.318-0.028
				c0.001,0.001,0.001,0.001,0.002,0.002c0.047,0.049,0.076,0.077,0.147,0.087c0.136,0.02,0.28-0.062,0.351-0.177
				C109.131,117.59,109.159,117.512,109.137,117.451z"/>
			<path style="fill:#AE5733;" d="M109.951,113.898c-0.388,0-0.751,0.69-0.236,0.69
				C110.103,114.588,110.466,113.898,109.951,113.898z"/>
			<path style="fill:#AE5733;" d="M113.136,122.327c-0.005-0.034-0.009-0.068-0.014-0.101c-0.009-0.045-0.031-0.081-0.066-0.108
				c-0.028-0.035-0.065-0.057-0.11-0.067c-0.031-0.005-0.062-0.009-0.093-0.014c-0.053-0.002-0.104,0.007-0.153,0.027
				c-0.037,0.008-0.071,0.023-0.103,0.045c-0.053,0.026-0.099,0.06-0.139,0.104c-0.022,0.029-0.045,0.057-0.067,0.086
				c-0.036,0.056-0.057,0.117-0.063,0.183l-0.014,0.11c-0.005,0.062,0.01,0.119,0.045,0.171c0.021,0.021,0.042,0.042,0.063,0.062
				c0.054,0.035,0.114,0.052,0.178,0.052c0.055,0.002,0.108-0.007,0.158-0.028c0.058-0.015,0.11-0.04,0.159-0.076
				c0.051-0.033,0.093-0.074,0.126-0.123c0.036-0.04,0.063-0.087,0.08-0.139C113.147,122.452,113.15,122.39,113.136,122.327z"/>
			<path style="fill:#AE5733;" d="M139.272,119.617c0-0.007-0.006-0.077-0.007-0.084c0-0.001,0-0.002-0.001-0.003
				s-0.001-0.002-0.001-0.003c0-0.001,0-0.001-0.001-0.002c0-0.001-0.032-0.071-0.033-0.072c0,0,0,0,0-0.001
				c-0.001-0.002-0.003-0.004-0.004-0.007c-0.018-0.021-0.039-0.041-0.06-0.059c-0.033-0.023-0.068-0.035-0.107-0.037
				c-0.016-0.004-0.032,0.002-0.048,0.001c-0.006-0.001-0.011-0.002-0.017-0.002c-0.012,0.001-0.024,0.002-0.036,0.004
				c-0.008,0.001-0.016-0.002-0.025,0.001c-0.003,0.001-0.006,0.002-0.008,0.003c-0.011,0.001-0.021,0.002-0.032,0.003
				c-0.004,0.001-0.008,0.003-0.012,0.004c-0.007,0.002-0.014,0.004-0.021,0.004c0.004,0,0.007-0.001,0.011-0.001
				c-0.004,0.001-0.008,0.003-0.012,0.004c-0.027,0.004-0.055,0.004-0.081,0.014c-0.055,0.014-0.106,0.039-0.152,0.073
				c-0.029,0.025-0.058,0.05-0.088,0.075c-0.039,0.038-0.068,0.081-0.088,0.131c-0.018,0.028-0.028,0.058-0.031,0.091
				c-0.013,0.043-0.014,0.087-0.002,0.132c0.012,0.026,0.024,0.051,0.035,0.077c0.035,0.048,0.082,0.08,0.139,0.096
				c0.033,0.005,0.067,0.01,0.1,0.014c0.003,0,0.007,0.001,0.01,0.001c0.006,0,0.011,0.001,0.017,0c0.003,0,0.005,0,0.008-0.001
				c0.034-0.003,0.07-0.006,0.103-0.01c0.001,0,0.003,0,0.004-0.001c0.002,0,0.005-0.001,0.007-0.001
				c0.001,0,0.002-0.001,0.003-0.001c0.001,0,0.001,0,0.002,0c0.018-0.006,0.035-0.011,0.053-0.017
				c0.017-0.006,0.035-0.011,0.052-0.017c0.002-0.001,0.1-0.056,0.102-0.057c0.001-0.001,0.088-0.076,0.089-0.076
				c0.001-0.001,0.066-0.085,0.067-0.086c0.001-0.001,0.044-0.091,0.044-0.092c0-0.001,0.001-0.002,0.001-0.003
				c0-0.001,0-0.001,0.001-0.002c0.001-0.004,0.018-0.086,0.019-0.09c0-0.001,0-0.002,0-0.003
				C139.272,119.618,139.272,119.617,139.272,119.617z"/>
			<g>
				<path style="fill:#AE5733;" d="M141.861,114.401c-0.015-0.055-0.045-0.099-0.092-0.131c-0.032-0.03-0.063-0.061-0.096-0.089
					c-0.008-0.006-0.015-0.012-0.023-0.018c-0.003-0.002-0.006-0.004-0.009-0.006c-0.019-0.01-0.082-0.034-0.093-0.04
					c-0.056-0.015-0.079-0.012-0.133-0.007c-0.078,0.008-0.056,0.002-0.156,0.039c-0.001,0-0.003,0.001-0.004,0.001
					c-0.072,0.033-0.138,0.077-0.193,0.135c-0.025,0.026-0.048,0.055-0.067,0.086c-0.029,0.048-0.062,0.122-0.062,0.181
					c0,0.001,0.007,0.085,0.007,0.086c0.006,0.027,0.019,0.054,0.035,0.077c0.001,0.001,0.002,0.002,0.003,0.003
					c0,0,0,0.001,0.001,0.001l0-0.001c0.001,0.002,0.004,0.003,0.005,0.005c0.015,0.023,0.033,0.043,0.058,0.059
					c0.026,0.015,0.053,0.027,0.081,0.037c0.002,0.001,0.004,0.001,0.007,0.002c0.005,0.001,0.01,0.003,0.016,0.005
					c0.001,0,0.001,0.001,0.002,0.001c0.015,0.007,0.029,0.014,0.044,0.022c0.006,0.003,0.012,0.006,0.018,0.009
					c0.036,0.026,0.076,0.039,0.119,0.041c0.046,0.01,0.093,0.009,0.139-0.003c0.053-0.01,0.102-0.03,0.146-0.059
					c0.05-0.024,0.094-0.057,0.132-0.099c0.021-0.027,0.042-0.054,0.063-0.081c0.034-0.053,0.054-0.111,0.059-0.174
					C141.866,114.457,141.863,114.429,141.861,114.401z"/>
				<path style="fill:#AE5733;" d="M141.547,114.118c0.005,0.001,0.007,0.001,0.012,0.002
					C141.545,114.116,141.543,114.116,141.547,114.118z"/>
			</g>
			<path style="fill:#AE5733;" d="M137.862,113.97c-0.036-0.045-0.095-0.079-0.154-0.073c-0.041,0.004-0.082,0.008-0.122,0.012
				c-0.023,0.002-0.046,0.004-0.069,0.006c-0.008-0.055-0.03-0.112-0.077-0.141c-0.066-0.04-0.148-0.051-0.223-0.033
				c-0.089,0.021-0.18,0.066-0.24,0.136c-0.056,0.065-0.103,0.128-0.132,0.209c-0.009,0.025-0.014,0.058-0.016,0.084
				c-0.001,0.011,0.002,0.055,0.008,0.079c0.003,0.01,0.018,0.039,0.015,0.034c-0.006-0.012,0.01,0.026,0.016,0.034
				c0.014,0.02,0.04,0.044,0.053,0.054c0.003,0.002,0.005,0.004,0.009,0.006c0.015,0.009,0.047,0.023,0.064,0.03
				c0.002,0.001,0.004,0.002,0.006,0.002c0.03,0.009,0.063,0.013,0.094,0.014c0.029,0.002,0.058-0.005,0.087-0.009
				c0.145,0.001,0.29-0.027,0.433-0.048c0.037-0.007,0.071-0.021,0.102-0.041c0.035-0.017,0.066-0.04,0.092-0.069
				c0.038-0.043,0.068-0.09,0.079-0.148C137.893,114.064,137.893,114.009,137.862,113.97z"/>
			<path style="fill:#AE5733;" d="M136.127,126.046c-0.363,0-0.704,0.646-0.221,0.646
				C136.269,126.692,136.609,126.046,136.127,126.046z"/>
			<path style="fill:#AE5733;" d="M131.826,127.573c-0.335,0-0.649,0.596-0.204,0.596
				C131.957,128.169,132.271,127.573,131.826,127.573z"/>
			<path style="fill:#AE5733;" d="M124.426,125.736c-0.349,0-0.676,0.621-0.213,0.621
				C124.563,126.357,124.89,125.736,124.426,125.736z"/>
			<path style="fill:#AE5733;" d="M126.687,122.489c-0.019-0.018-0.037-0.037-0.056-0.055c-0.048-0.031-0.101-0.046-0.159-0.046
				c-0.031,0.003-0.062,0.006-0.093,0.009c-0.069,0.015-0.132,0.043-0.189,0.084c-0.042,0.035-0.091,0.071-0.126,0.116
				c-0.023,0.029-0.047,0.058-0.068,0.088c-0.003,0.004-0.006,0.009-0.009,0.014c-0.021,0.034-0.036,0.072-0.053,0.108
				c-0.019,0.042-0.026,0.094-0.034,0.137c-0.004,0.022-0.005,0.045-0.004,0.067c-0.005,0.041,0.002,0.078,0.022,0.112
				c0.012,0.037,0.035,0.067,0.07,0.088c0.034,0.024,0.071,0.037,0.112,0.039c0.043,0.01,0.087,0.009,0.131-0.003
				c0.031-0.01,0.061-0.02,0.092-0.03c0.064-0.028,0.12-0.068,0.168-0.118c0.02-0.025,0.04-0.051,0.059-0.076
				c0.026-0.041,0.042-0.086,0.05-0.134c0.012-0.013,0.028-0.023,0.039-0.038c0.032-0.036,0.056-0.077,0.071-0.124
				c0.017-0.041,0.021-0.083,0.014-0.125C126.725,122.561,126.713,122.523,126.687,122.489z"/>
			<path style="fill:#AE5733;" d="M119.185,123.323c-0.013-0.05-0.041-0.09-0.083-0.119c-0.023-0.011-0.046-0.021-0.068-0.032
				c-0.025-0.007-0.05-0.01-0.075-0.011c-0.001-0.028-0.002-0.055-0.016-0.08c-0.011-0.035-0.033-0.062-0.065-0.082
				c-0.022-0.01-0.044-0.02-0.066-0.03c-0.039-0.012-0.078-0.014-0.118-0.007c-0.029,0-0.058,0.006-0.084,0.018
				c-0.046,0.012-0.088,0.032-0.127,0.061l-0.073,0.063c-0.041,0.042-0.072,0.091-0.091,0.146c-0.012,0.056-0.028,0.116-0.028,0.174
				c0,0.038,0.003,0.076,0.009,0.113c0.002,0.012,0.005,0.023,0.009,0.034c0.011,0.027,0.023,0.054,0.037,0.08
				c0.003,0.005,0.005,0.009,0.009,0.014c0.013,0.018,0.05,0.056,0.078,0.071c0.002,0.001,0.004,0.002,0.007,0.003
				c0.024,0.012,0.049,0.024,0.075,0.034c0.005,0.002,0.011,0.004,0.016,0.005c0.018,0.005,0.038,0.006,0.056,0.009
				c0.019,0.003,0.039,0.007,0.058,0.007c0.007,0,0.014,0,0.021,0c0.036-0.002,0.073-0.006,0.109-0.011
				c0.018-0.002,0.036-0.007,0.054-0.012c0.048-0.009,0.092-0.027,0.133-0.054c0.046-0.022,0.085-0.052,0.12-0.09
				c0.034-0.033,0.059-0.07,0.076-0.113c0.021-0.036,0.033-0.076,0.035-0.118C119.189,123.373,119.187,123.348,119.185,123.323z"/>
			<path style="fill:#AE5733;" d="M116.662,124.42c-0.014-0.065-0.027-0.131-0.041-0.197c-0.006-0.028-0.019-0.05-0.041-0.067
				c-0.018-0.021-0.04-0.035-0.068-0.041c-0.019-0.003-0.038-0.006-0.057-0.008c-0.033-0.001-0.064,0.004-0.094,0.016
				c-0.023,0.005-0.044,0.014-0.063,0.028c-0.033,0.016-0.061,0.037-0.086,0.064c-0.014,0.018-0.028,0.035-0.041,0.053
				c-0.022,0.035-0.035,0.072-0.039,0.113c-0.014,0.074-0.028,0.149-0.042,0.223c-0.003,0.043,0.007,0.083,0.031,0.119
				c0.015,0.015,0.029,0.029,0.044,0.043c0.038,0.024,0.079,0.036,0.124,0.036c0.038,0.001,0.075-0.005,0.11-0.019
				c0.04-0.01,0.077-0.028,0.111-0.053c0.035-0.023,0.065-0.052,0.088-0.086c0.025-0.028,0.044-0.06,0.056-0.097
				C116.669,124.507,116.672,124.464,116.662,124.42z"/>
			<path style="fill:#AE5733;" d="M114.623,122.703c-0.007-0.033-0.023-0.059-0.048-0.078c-0.02-0.025-0.047-0.041-0.079-0.048
				l-0.092-0.024c-0.051-0.013-0.102-0.014-0.153-0.003c-0.059,0.013-0.113,0.037-0.162,0.072c-0.023,0.02-0.047,0.04-0.07,0.06
				c-0.039,0.04-0.068,0.087-0.088,0.14c-0.015,0.035-0.019,0.071-0.012,0.107c-0.001,0.035,0.009,0.067,0.031,0.096
				c0.058,0.083,0.171,0.1,0.264,0.079l0.109-0.024c0.025-0.008,0.05-0.016,0.075-0.024c0.04-0.016,0.075-0.039,0.105-0.069
				c0.023-0.016,0.041-0.035,0.056-0.058c0.025-0.028,0.044-0.06,0.056-0.097c0.005-0.022,0.009-0.044,0.014-0.066
				C114.627,122.745,114.625,122.724,114.623,122.703z"/>
			<path style="fill:#AE5733;" d="M132.891,129.313c-0.03-0.045-0.069-0.075-0.118-0.092c-0.047-0.027-0.099-0.04-0.155-0.037
				c-0.083,0-0.163,0.017-0.239,0.051c-0.079,0.035-0.157,0.087-0.218,0.15c-0.007,0.005-0.016,0.006-0.023,0.011
				c-0.03,0.026-0.06,0.051-0.089,0.077c-0.022,0.029-0.045,0.058-0.068,0.087c-0.029,0.042-0.047,0.088-0.054,0.138
				c-0.014,0.044-0.014,0.089-0.002,0.135c0.006,0.023,0.011,0.047,0.015,0.071c0.002,0.014,0.003,0.028,0.005,0.041
				c0.001,0.005,0.002,0.009,0.003,0.013c0,0.001,0.001,0.002,0.001,0.003c0.007,0.017,0.029,0.067,0.038,0.083
				c0.001,0.002,0.002,0.004,0.003,0.006c0.001,0.002,0.003,0.004,0.004,0.005c0.001,0.001,0.002,0.002,0.003,0.003
				c0.019,0.02,0.046,0.046,0.066,0.065c0.005,0.005,0.01,0.009,0.016,0.013c0.022,0.017,0.046,0.032,0.069,0.047
				c0.119,0.08,0.278,0.062,0.403,0.007c0.077-0.034,0.145-0.082,0.203-0.142c0.053-0.055,0.093-0.118,0.118-0.19
				c0.009-0.029,0.017-0.058,0.027-0.086c0.017-0.049,0.026-0.101,0.035-0.151c0.007-0.038,0.004-0.077,0.005-0.116
				C132.947,129.436,132.93,129.371,132.891,129.313z"/>
			<path style="fill:#AE5733;" d="M142.043,118.086c-0.014-0.033-0.028-0.069-0.046-0.101c-0.003-0.005-0.006-0.009-0.009-0.013
				c-0.024-0.029-0.053-0.054-0.08-0.079c-0.004-0.004-0.008-0.007-0.013-0.011c-0.009-0.007-0.019-0.013-0.03-0.018
				c-0.039-0.02-0.081-0.043-0.124-0.054c-0.046-0.011-0.095-0.018-0.143-0.021c-0.016-0.001-0.032,0-0.048,0.001
				c-0.055,0.005-0.112,0.007-0.166,0.02c-0.009,0.002-0.018,0.005-0.027,0.007c-0.005,0.001-0.01,0.003-0.014,0.004
				c-0.028,0.009-0.095,0.028-0.122,0.04c-0.002,0.001-0.003,0.001-0.005,0.002c-0.039,0.022-0.078,0.044-0.117,0.066
				c-0.009,0.006-0.018,0.013-0.027,0.02c-0.004,0.004-0.008,0.007-0.013,0.01c-0.005,0.004-0.015,0.012-0.022,0.018
				c-0.009,0.005-0.019,0.009-0.027,0.015c-0.065,0.041-0.119,0.108-0.162,0.17c-0.026,0.037-0.046,0.079-0.059,0.122
				c-0.01,0.032-0.016,0.067-0.021,0.1c-0.002,0.009-0.003,0.019-0.002,0.029c0.001,0.098,0.023,0.172,0.073,0.257
				c0.014,0.023,0.031,0.045,0.049,0.065c0.035,0.039,0.071,0.076,0.112,0.108c0.048,0.037,0.107,0.064,0.163,0.085
				c0.012,0.005,0.025,0.008,0.038,0.01c0.041,0.008,0.087,0.018,0.13,0.016c0.04-0.001,0.081-0.006,0.12-0.012
				c0.006-0.001,0.011-0.002,0.017-0.003c0.041-0.01,0.082-0.024,0.121-0.039c0.006-0.002,0.011-0.004,0.017-0.007
				c0.005-0.002,0.009-0.005,0.014-0.007c0.04-0.021,0.082-0.043,0.12-0.068c0.005-0.003,0.009-0.007,0.013-0.01
				c0.036-0.029,0.072-0.059,0.105-0.091c0.036-0.034,0.065-0.077,0.093-0.117c0.007-0.009,0.013-0.018,0.018-0.028
				c0.023-0.041,0.044-0.085,0.062-0.129c0.004-0.011,0.007-0.022,0.01-0.033c0.013-0.052,0.029-0.111,0.027-0.166
				C142.063,118.195,142.063,118.135,142.043,118.086z"/>
			<path style="fill:#AE5733;" d="M131.65,115.283l-0.061-0.059c-0.052-0.033-0.108-0.05-0.17-0.05
				c-0.053-0.002-0.103,0.007-0.151,0.027c-0.055,0.014-0.105,0.038-0.151,0.073c-0.048,0.031-0.088,0.071-0.12,0.117
				c-0.035,0.038-0.06,0.083-0.076,0.133c-0.006,0.03-0.012,0.06-0.019,0.091c-0.005,0.059,0.01,0.114,0.043,0.163l0.06,0.06
				c0.052,0.033,0.109,0.05,0.17,0.05c0.053,0.002,0.103-0.007,0.151-0.027c0.055-0.014,0.105-0.038,0.151-0.073
				c0.048-0.031,0.088-0.071,0.12-0.117c0.035-0.038,0.06-0.083,0.076-0.133c0.006-0.03,0.012-0.06,0.019-0.091
				C131.697,115.387,131.683,115.333,131.65,115.283z"/>
			<path style="fill:#AE5733;" d="M114.668,117.66c-0.002-0.014-0.004-0.027-0.008-0.04c-0.011-0.04-0.032-0.079-0.05-0.115
				c-0.006-0.011-0.012-0.022-0.02-0.032c-0.025-0.032-0.056-0.062-0.088-0.087c-0.033-0.026-0.077-0.041-0.114-0.057
				c-0.013-0.005-0.025-0.01-0.039-0.013c-0.045-0.01-0.094-0.018-0.141-0.019c-0.052,0-0.105,0.007-0.157,0.015
				c-0.067,0.01-0.129,0.04-0.188,0.073c-0.026,0.015-0.053,0.029-0.078,0.045c-0.02,0.013-0.038,0.027-0.056,0.042
				c-0.029,0.025-0.058,0.05-0.088,0.075c-0.039,0.037-0.068,0.081-0.088,0.13c-0.021,0.045-0.039,0.099-0.041,0.152
				c-0.02,0.035-0.04,0.07-0.056,0.109c-0.018,0.044-0.026,0.092-0.034,0.138c-0.008,0.045-0.001,0.092,0.005,0.137
				c0.003,0.022,0.01,0.043,0.018,0.064c0.019,0.043,0.037,0.089,0.067,0.126c0.04,0.049,0.091,0.101,0.149,0.132
				c0.08,0.042,0.144,0.063,0.236,0.067c0.044,0.002,0.089-0.004,0.131-0.012c0.046-0.008,0.091-0.025,0.134-0.042
				c0.046-0.018,0.089-0.046,0.131-0.072c0.043-0.027,0.08-0.064,0.117-0.097c0.048-0.043,0.087-0.095,0.123-0.148
				c0.035-0.052,0.062-0.112,0.086-0.17c0.012-0.029,0.021-0.059,0.028-0.09c0.013-0.058,0.029-0.119,0.029-0.18
				C114.678,117.746,114.673,117.703,114.668,117.66z"/>
			<path style="fill:#AE5733;" d="M108.173,111.447c-0.007-0.025-0.019-0.047-0.031-0.069c0,0,0,0,0-0.001
				c0.005,0.011,0.01,0.023,0.015,0.034c-0.008-0.018-0.011-0.037-0.015-0.056c0-0.006,0-0.012,0-0.018
				c0.004-0.034-0.002-0.065-0.019-0.093c-0.01-0.031-0.03-0.055-0.058-0.073c-0.02-0.009-0.039-0.018-0.059-0.027
				c-0.035-0.011-0.07-0.013-0.106-0.006c-0.026,0-0.051,0.005-0.076,0.016c-0.041,0.01-0.079,0.029-0.113,0.055
				c-0.022,0.019-0.044,0.037-0.065,0.056c-0.037,0.038-0.064,0.081-0.082,0.131c-0.008,0.031-0.015,0.063-0.02,0.095
				c-0.002,0.011-0.003,0.021-0.003,0.032c0,0.01,0,0.02,0,0.029c0.002,0.031,0.004,0.063,0.009,0.093
				c0.002,0.01,0.004,0.019,0.007,0.028c0.002,0.005,0.003,0.01,0.005,0.015c0.001,0.002,0.002,0.004,0.003,0.006
				c0,0.001,0.001,0.002,0.001,0.003c0.009,0.02,0.018,0.04,0.027,0.06c0.003,0.004,0.006,0.008,0.01,0.012
				c0.018,0.018,0.036,0.036,0.055,0.054c0.008,0.007,0.016,0.014,0.025,0.02c0.019,0.009,0.039,0.018,0.058,0.027
				c0.035,0.011,0.069,0.013,0.104,0.006c0.026,0,0.051-0.005,0.075-0.016c0.041-0.01,0.078-0.028,0.112-0.054l0.064-0.055
				l0.049-0.063c0.021-0.031,0.034-0.064,0.039-0.1c0.01-0.032,0.01-0.064,0.001-0.097
				C108.182,111.475,108.177,111.461,108.173,111.447z"/>
		</g>
	</g>
	<g>
		<path style="fill:#FFFFFF;" d="M143.717,117.973c0,0,7.931,8.427,19.332,3.966c11.401-4.461,6.247-14.101,1.123-16.663
			C159.43,102.904,142.726,102.441,143.717,117.973z"/>
		<g>
			<g>
				<circle style="fill:#5D3331;" cx="156.907" cy="112.539" r="8.044"/>
				<circle style="fill:#1A1716;" cx="156.907" cy="112.539" r="5.99"/>
				<path style="fill:#FFFFFF;" d="M157.678,109.232c0,1.31,1.062,2.372,2.372,2.372s2.372-1.062,2.372-2.372
					c0-1.31-1.062-2.372-2.372-2.372S157.678,107.922,157.678,109.232z"/>
				<path style="fill:#FFFFFF;" d="M161.923,112.743c0,0.387,0.314,0.7,0.701,0.7c0.387,0,0.7-0.314,0.7-0.7
					c0-0.387-0.314-0.7-0.7-0.7C162.237,112.042,161.923,112.356,161.923,112.743z"/>
			</g>
		</g>
		<path style="fill:#231109;" d="M138.554,93.188c0,0,0.991,4.833,3.966,4.585c2.974-0.248,4.213-0.124,15.49-2.107
			c11.277-1.983,14.871,0.867,19.332,3.718c-4.213-9.17-6.32-10.905-14.499-9.914S142.024,93.56,138.554,93.188z"/>
		<path style="fill:#1A1212;" d="M143.717,117.973c0,0-0.083-13.136,13.879-12.145c13.962,0.991,10.823,12.392,10.823,12.392
			s2.974-1.9,2.065-9.418c-0.578-3.965-9.584-7.601-19.167-4.792C141.735,106.82,143.222,116.321,143.717,117.973z"/>
		<path style="fill:#1A1212;" d="M144.252,105.657c0,0,10.012-11.19,27.765-0.589C165.791,98.926,154.18,94.888,144.252,105.657z"/>
	</g>
	<g>
		<path style="fill:#FFFFFF;" d="M109.101,117.973c0,0-7.931,8.427-19.332,3.966c-11.401-4.461-6.248-14.101-1.124-16.663
			C93.388,102.904,110.092,102.441,109.101,117.973z"/>
		<g>
			<g>
				<circle style="fill:#5D3331;" cx="95.911" cy="112.539" r="8.044"/>
				<circle style="fill:#1A1716;" cx="95.911" cy="112.539" r="5.99"/>
				<path style="fill:#FFFFFF;" d="M96.682,109.232c0,1.31,1.062,2.372,2.372,2.372c1.31,0,2.372-1.062,2.372-2.372
					c0-1.31-1.062-2.372-2.372-2.372C97.744,106.86,96.682,107.922,96.682,109.232z"/>
				<path style="fill:#FFFFFF;" d="M100.928,112.743c0,0.387,0.314,0.7,0.7,0.7c0.387,0,0.701-0.314,0.701-0.7
					c0-0.387-0.314-0.7-0.701-0.7C101.241,112.042,100.928,112.356,100.928,112.743z"/>
			</g>
		</g>
		<path style="fill:#231109;" d="M114.264,93.188c0,0-0.991,4.833-3.966,4.585c-2.974-0.248-4.213-0.124-15.491-2.107
			c-11.277-1.983-14.871,0.867-19.332,3.718c4.213-9.17,6.32-10.905,14.499-9.914S110.794,93.56,114.264,93.188z"/>
		<path style="fill:#1A1212;" d="M109.101,117.973c0,0,0.083-13.136-13.88-12.145c-13.962,0.991-10.823,12.392-10.823,12.392
			s-2.974-1.9-2.065-9.418c0.578-3.965,9.583-7.601,19.167-4.792C111.083,106.82,109.596,116.321,109.101,117.973z"/>
		<path style="fill:#1A1212;" d="M108.566,105.657c0,0-10.012-11.19-27.765-0.589C87.027,98.926,98.638,94.888,108.566,105.657z"/>
	</g>
	<g>
		<g>
			<path style="opacity:0.47;fill:#834D2A;" d="M113.423,144.811c-1.158-0.556-2-1.735-2.228-2.987
				c-0.275-1.511,0.291-3.085,1.102-4.343c0.153-0.238-0.076-0.292-0.222-0.104c-1.058,1.368-1.856,3.061-1.629,4.832
				c0.189,1.471,1.049,2.867,2.519,3.309C113.238,145.6,113.745,144.965,113.423,144.811z"/>
			<path style="opacity:0.47;fill:#834D2A;" d="M139.697,144.811c1.158-0.556,2-1.735,2.228-2.987
				c0.275-1.511-0.291-3.085-1.102-4.343c-0.154-0.238,0.076-0.292,0.222-0.104c1.058,1.368,1.856,3.061,1.628,4.832
				c-0.189,1.471-1.049,2.867-2.519,3.309C139.881,145.6,139.374,144.965,139.697,144.811z"/>
			<g>
				<path style="opacity:0.47;fill:#834D2A;" d="M122.474,145.555c0,0-2.92-3.601-5.525-2.486
					C114.345,144.184,117.645,146.115,122.474,145.555z"/>
				<path style="opacity:0.47;fill:#834D2A;" d="M130.152,145.555c0,0,2.92-3.601,5.525-2.486
					C138.281,144.184,134.981,146.115,130.152,145.555z"/>
			</g>
		</g>
		<g>
			<path style="fill:#4E1D06;" d="M114.719,164.073c7.022-0.165,8.592-2.065,12.31,0.331c3.883-2.313,9.17-0.661,12.888-0.496
				c2.011,0.089,4.601-0.691,6.556-1.427c-3.299,0.364-6.294-2.613-10.846-5.174c-4.827-2.715-6.427,1.904-10.802-0.208
				c-4.375-2.112-9.579,1.056-13.124,3.847c-3.545,2.791-6.11,0.98-6.11,0.98s-0.175,0.482,1.345,1.122
				C108.948,163.637,111.615,164.146,114.719,164.073z"/>
			<path style="fill:#934B24;" d="M139.917,163.908c-3.718-0.165-9.005-1.818-12.888,0.496c-3.718-2.396-5.287-0.496-12.31-0.331
				c-3.104,0.073-5.771-0.435-7.783-1.025c0.182,0.077,0.383,0.155,0.616,0.236c2.187,0.754,3.092,0.377,9.127,5.204
				c6.034,4.827,15.01,3.092,19.913-0.377c4.903-3.47,6.034-3.771,10.484-5.732c-0.202,0.047-0.403,0.08-0.603,0.102
				C144.518,163.216,141.928,163.997,139.917,163.908z"/>
			<path style="opacity:0.23;fill:#AD4637;" d="M135.622,166.649c0.168,0.527-0.786,1.301-2.13,1.728
				c-1.344,0.427-2.569,0.346-2.736-0.182c-0.167-0.527,0.786-1.301,2.13-1.728C134.23,166.04,135.455,166.121,135.622,166.649z"/>
		</g>
		<path style="fill:#6F2C1F;" d="M122.237,173.574c0,0,6.361,0.991,9.997-0.413C130.416,174.73,125.046,175.143,122.237,173.574z"/>
		<path style="opacity:0.2;fill:#AE5733;" d="M111.778,139.259c0,0,4.377-3.183,7.825-4.244c5.835,1.724,13.395,0.531,14.589-0.133
			s7.162,5.04,7.162,5.04s-1.592-11.273-14.589-11.273S111.778,139.259,111.778,139.259z"/>
		<path style="opacity:0.2;fill:#AE5733;" d="M130.848,131.841c0,0.601-1.328,1.088-2.966,1.088c-1.638,0-2.966-0.487-2.966-1.088
			s1.328-1.088,2.966-1.088C129.52,130.754,130.848,131.241,130.848,131.841z"/>
		<path style="opacity:0.47;fill:#834D2A;" d="M128.197,152.635c0,0.281-0.576,0.509-1.287,0.509c-0.711,0-1.287-0.228-1.287-0.509
			s0.576-0.509,1.287-0.509C127.62,152.125,128.197,152.353,128.197,152.635z"/>
	</g>
	<path style="fill:#311C10;" d="M68.041,111.281c0,0-1.458-19.159,1.582-23.134S79.938,76.83,81.59,61.298
		c11.236-17.184,35.36-20.324,41.804-17.68c3.305-1.983,3.965-3.139,3.965-3.139s0.331,3.635-0.165,5.122
		c9.583-4.792,26.437-4.131,43.621,13.219c3.47,5.287,2.148,20.489,13.714,30.568c1.652,3.139,0,21.976,0,21.976
		s19.425-31.984,15.862-58.823c-3.718-28.007-37.673-57.749-73.859-45.108c-8.179-5.205-35.442-5.701-57.005,12.888
		C47.965,38.909,45.735,78.317,68.041,111.281z"/>
	<path style="opacity:0.31;fill:#311C10;" d="M199.375,72.496c-2.55,2.282-5.651,3.852-9.144,2.919
		c-3.099-0.828-5.567-3.207-7.52-5.642c-2.953-3.681-4.774-8.061-6.853-12.254c-1.069-2.157-2.231-4.275-3.675-6.208
		c-1.163-1.558-2.526-2.971-3.975-4.264c-3.025-2.699-6.482-4.905-10.146-6.631c-7.188-3.385-15.88-5.204-23.565-2.429
		c-0.441,0.159-0.654-0.817-0.498-1.08c0.883-1.489,2.254-2.68,3.427-3.933c0.555-0.593,1.104-1.199,1.567-1.868
		c0.225-0.325,0.721-0.966,0.621-1.401c-0.042-0.186-0.523-0.48-0.75-0.604c-0.543-0.296-1.147-0.491-1.737-0.666
		c-1.398-0.416-2.837-0.683-4.269-0.95c-1.038-0.193-2.157-0.31-3.148-0.692c-0.405-0.156-0.445-0.891-0.167-1.163
		c1.862-1.818,4.333-2.763,6.668-3.843c-1.747-1.061-3.811-1.434-5.806-1.859c-1.433-0.305-3.293-0.68-3.807-2.272
		c-0.306-0.949-0.07-1.99,0.268-2.894c0.461-1.236,1.117-2.39,1.896-3.452c1.759-2.399,4.076-4.335,6.5-6.033
		c0.079-0.056,0.163-0.107,0.243-0.162c-3.011,0.49-6.055,1.249-9.115,2.318c-1.785-1.136-4.481-2.047-7.827-2.585
		c1.75,0.954,3.411,2.21,4.352,3.966c2.915,5.442-2.709,9.079-6.99,11.762c2.792-0.105,5.56,0.197,7.983,1.78
		c0.333,0.218,0.279,0.923-0.049,1.119c-1.555,0.93-3.223,1.686-4.722,2.707c0.751,0.487,1.488,0.994,2.176,1.565
		c2.172,1.804,4.232,4.792,2.123,7.438c-0.863,1.083-2.127,1.832-3.346,2.448c-1.612,0.815-3.325,1.427-5.044,1.973
		c-3.779,1.2-7.649,2.069-11.479,3.082c-1.428,0.378-2.874,0.756-4.247,1.307c-2.635,1.056-5.117,2.546-7.337,4.31
		c-4.719,3.749-8.153,8.767-11.191,13.908c-3.121,5.281-5.865,10.833-9.543,15.763c-2.039,2.733-4.128,5.541-6.9,7.581
		c-2.227,1.639-4.894,2.665-7.662,2.823c-0.054,0.003-0.107,0.001-0.161,0.004c2.594,7.752,6.357,15.488,11.372,22.899
		c0,0-1.458-19.158,1.582-23.134c3.04-3.976,10.314-11.316,11.967-26.848c11.236-17.184,35.36-20.324,41.804-17.68
		c3.305-1.983,3.966-3.139,3.966-3.139s0.33,3.635-0.165,5.122c9.584-4.792,26.437-4.131,43.621,13.219
		c3.47,5.287,2.148,20.489,13.714,30.568c1.652,3.139,0,21.976,0,21.976S195.509,93.041,199.375,72.496z"/>
</g>
</svg>
