<svg width="30" height="30" viewBox="0 0 30 30" fill="none" xmlns="http://www.w3.org/2000/svg">
<rect width="30" height="30" rx="15" fill="#F47A1C" fill-opacity="0.1"/>
<path d="M9.37891 15.4745H21.6201M10.4912 15.4745L11.0485 23.2653M20.509 15.4745L19.9517 23.2653M19.143 15.5C19.143 14.5338 18.7592 13.6072 18.076 12.9241C17.3928 12.2409 16.4663 11.8571 15.5001 11.8571C14.534 11.8571 13.6074 12.2409 12.9242 12.9241C12.2411 13.6072 11.8573 14.5338 11.8573 15.5M15.5001 11.5778C15.7615 11.587 16.0221 11.5435 16.2663 11.4499C16.5106 11.3562 16.7334 11.2143 16.9216 11.0327C17.1098 10.851 17.2595 10.6333 17.3617 10.3925C17.4639 10.1518 17.5166 9.89287 17.5166 9.63131C17.5166 9.36974 17.4639 9.11086 17.3617 8.87009C17.2595 8.62933 17.1098 8.41163 16.9216 8.22996C16.7334 8.0483 16.5106 7.90641 16.2663 7.81275C16.0221 7.71909 15.7615 7.67557 15.5001 7.68481C14.9958 7.70263 14.518 7.9155 14.1675 8.2786C13.8171 8.64169 13.6212 9.12665 13.6212 9.63131C13.6212 10.136 13.8171 10.6209 14.1675 10.984C14.518 11.3471 14.9958 11.56 15.5001 11.5778ZM15.5001 17.4307L16.2165 18.8817L17.817 19.1149L16.6585 20.2442L16.9318 21.8385L15.5001 21.0857L14.0673 21.8385L14.3417 20.2442L13.1833 19.1149L14.7837 18.8817L15.5001 17.4307Z" stroke="#F47A1C" stroke-linecap="round" stroke-linejoin="round"/>
</svg>
